<?xml version="1.0" encoding="UTF-8" standalone="no"?>
<!-- Created with Inkscape (http://www.inkscape.org/) -->

<svg
   xmlns:dc="http://purl.org/dc/elements/1.1/"
   xmlns:cc="http://creativecommons.org/ns#"
   xmlns:rdf="http://www.w3.org/1999/02/22-rdf-syntax-ns#"
   xmlns:svg="http://www.w3.org/2000/svg"
   xmlns="http://www.w3.org/2000/svg"
   xmlns:sodipodi="http://sodipodi.sourceforge.net/DTD/sodipodi-0.dtd"
   xmlns:inkscape="http://www.inkscape.org/namespaces/inkscape"
   version="1.1"
   id="svg2270"
   width="397.56522"
   height="328.69565"
   viewBox="0 0 397.56522 328.69565"
   sodipodi:docname="final-icons.svg"
   inkscape:version="0.92.4 (5da689c313, 2019-01-14)">
  <metadata
     id="metadata2276">
    <rdf:RDF>
      <cc:Work
         rdf:about="">
        <dc:format>image/svg+xml</dc:format>
        <dc:type
           rdf:resource="http://purl.org/dc/dcmitype/StillImage" />
        <dc:title />
      </cc:Work>
    </rdf:RDF>
  </metadata>
  <defs
     id="defs2274">
    <marker
       inkscape:stockid="Arrow1Lstart"
       orient="auto"
       refY="0.0"
       refX="0.0"
       id="marker6724"
       style="overflow:visible"
       inkscape:isstock="true">
      <path
         id="path6722"
         d="M 0.0,0.0 L 5.0,-5.0 L -12.5,0.0 L 5.0,5.0 L 0.0,0.0 z "
         style="fill-rule:evenodd;stroke:#ff0000;stroke-width:1pt;stroke-opacity:1;fill:#ff0000;fill-opacity:1"
         transform="scale(0.8) translate(12.5,0)" />
    </marker>
    <marker
       inkscape:stockid="Arrow1Lstart"
       orient="auto"
       refY="0.0"
       refX="0.0"
       id="marker6702"
       style="overflow:visible"
       inkscape:isstock="true">
      <path
         id="path6700"
         d="M 0.0,0.0 L 5.0,-5.0 L -12.5,0.0 L 5.0,5.0 L 0.0,0.0 z "
         style="fill-rule:evenodd;stroke:#ff0000;stroke-width:1pt;stroke-opacity:1;fill:#ff0000;fill-opacity:1"
         transform="scale(0.8) translate(12.5,0)" />
    </marker>
    <marker
       inkscape:stockid="Arrow1Lstart"
       orient="auto"
       refY="0.0"
       refX="0.0"
       id="Arrow1Lstart"
       style="overflow:visible"
       inkscape:isstock="true">
      <path
         id="path6424"
         d="M 0.0,0.0 L 5.0,-5.0 L -12.5,0.0 L 5.0,5.0 L 0.0,0.0 z "
         style="fill-rule:evenodd;stroke:#ff0000;stroke-width:1pt;stroke-opacity:1;fill:#ff0000;fill-opacity:1"
         transform="scale(0.8) translate(12.5,0)" />
    </marker>
  </defs>
  <sodipodi:namedview
     pagecolor="#ffffff"
     bordercolor="#666666"
     borderopacity="1"
     objecttolerance="10"
     gridtolerance="10"
     guidetolerance="10"
     inkscape:pageopacity="0"
     inkscape:pageshadow="2"
     inkscape:window-width="1366"
     inkscape:window-height="705"
     id="namedview2272"
     showgrid="false"
     inkscape:zoom="0.70710678"
     inkscape:cx="257.7324"
     inkscape:cy="216.55711"
     inkscape:window-x="-8"
     inkscape:window-y="-8"
     inkscape:window-maximized="1"
     inkscape:current-layer="svg2270" />
  <g
     id="g4071"
     transform="translate(405.75527,1071.5091)"
     inkscape:export-filename="C:\Users\Tim\Desktop\furbabies\images\final icons\double-dog.png"
     inkscape:export-xdpi="91.599998"
     inkscape:export-ydpi="91.599998">
    <path
       sodipodi:nodetypes="ccccccccccc"
       inkscape:connector-curvature="0"
       id="path2823"
       d="m -122.1281,-998.65734 -0.60449,5.19868 c -4.11726,19.6627 -23.05554,12.92347 -27.93141,11.27461 -8.78666,4.93755 -24.03282,5.77728 -28.08301,-11.11352 l -0.44549,-5.60156 m 28.5322,16.6841 v -10.27645 c -3.9078,-1.90968 -6.65018,-4.25638 -7.97934,-7.13303 5.57688,-1.80909 11.26313,-2.86659 16.20048,0.12089 -1.36681,3.90855 -4.58155,5.70521 -8.1821,7.06093 l -0.009,10.22766"
       style="fill:none;stroke:#10181f;stroke-width:2.72526836;stroke-linecap:butt;stroke-linejoin:round;stroke-miterlimit:4;stroke-dasharray:none;stroke-opacity:1" />
    <path
       sodipodi:nodetypes="cccc"
       inkscape:connector-curvature="0"
       id="path2825"
       d="m -179.23061,-994.62748 -5.03965,7.75781 c 15.41744,21.39173 50.77975,24.62523 66.49453,-0.54405 l -5.07776,-7.73752"
       style="fill:none;stroke:#10181f;stroke-width:2.72526836;stroke-linecap:butt;stroke-linejoin:round;stroke-miterlimit:4;stroke-dasharray:none;stroke-opacity:1" />
    <path
       sodipodi:nodetypes="ccc"
       inkscape:connector-curvature="0"
       id="path2827"
       d="m -164.08011,-979.19256 c 10.84529,14.89223 19.32184,10.5977 26.96051,-0.4836 v 0"
       style="fill:none;stroke:#10181f;stroke-width:2.72526836;stroke-linecap:butt;stroke-linejoin:round;stroke-miterlimit:4;stroke-dasharray:none;stroke-opacity:1" />
    <path
       sodipodi:nodetypes="cccc"
       inkscape:connector-curvature="0"
       id="path2829"
       d="m -179.1925,-996.89913 c 5.36591,-7.14517 10.40816,-17.45637 14.5079,-47.39247 -10.43974,-1.0883 -33.63996,9.3329 -30.70839,35.0607 2.13552,9.0026 8.67613,19.94602 16.20049,12.33177 z"
       style="fill:#10181f;fill-opacity:1;stroke:#10181f;stroke-width:0.24551967px;stroke-linecap:butt;stroke-linejoin:miter;stroke-opacity:1" />
    <path
       sodipodi:nodetypes="cccc"
       inkscape:connector-curvature="0"
       id="path2829-4"
       d="m -122.36782,-997.23875 c -5.36591,-7.14515 -10.40816,-17.45635 -14.5079,-47.39245 10.43974,-1.0883 33.63996,9.3329 30.70839,35.0607 -2.13552,9.0026 -8.67613,19.94603 -16.20049,12.33175 z"
       style="fill:#10181f;fill-opacity:1;stroke:#10181f;stroke-width:0.24551967px;stroke-linecap:butt;stroke-linejoin:miter;stroke-opacity:1" />
    <path
       sodipodi:nodetypes="cc"
       inkscape:connector-curvature="0"
       id="path2846"
       d="m -167.34438,-1042.6646 c 12.57125,-5.8717 23.81285,-4.652 34.45625,-0.2418"
       style="fill:none;stroke:#10181f;stroke-width:2.72526836;stroke-linecap:butt;stroke-linejoin:miter;stroke-miterlimit:4;stroke-dasharray:none;stroke-opacity:1" />
    <ellipse
       ry="3.8687727"
       rx="3.9896719"
       cy="-1017.2758"
       cx="-160.45312"
       id="path2848"
       style="opacity:1;fill:none;fill-opacity:1;stroke:#10181f;stroke-width:2.72526836;stroke-linecap:butt;stroke-linejoin:round;stroke-miterlimit:4;stroke-dasharray:none;stroke-opacity:1;paint-order:markers fill stroke" />
    <ellipse
       ry="3.8687727"
       rx="3.9896719"
       cy="-1017.1549"
       cx="-141.23016"
       id="path2848-5"
       style="opacity:1;fill:none;fill-opacity:1;stroke:#10181f;stroke-width:2.72526836;stroke-linecap:butt;stroke-linejoin:round;stroke-miterlimit:4;stroke-dasharray:none;stroke-opacity:1;paint-order:markers fill stroke" />
    <path
       style="fill:none;stroke:#10181f;stroke-width:2.72526836;stroke-linecap:butt;stroke-linejoin:round;stroke-miterlimit:4;stroke-dasharray:none;stroke-opacity:1"
       d="m -177.42188,-979.64943 c -6.07419,0.81162 -12.40307,-1.419 -14.93626,-2.27564 -8.78666,4.93754 -24.03282,5.77727 -28.08301,-11.11353 l -0.44549,-5.60155 m 28.5322,16.68409 v -10.27645 c -3.9078,-1.90967 -6.65018,-4.25637 -7.97934,-7.13303 5.57688,-1.80906 11.26313,-2.86656 16.20048,0.12089 -1.36681,3.90856 -4.58155,5.70522 -8.18209,7.06093 l -0.009,10.22766"
       id="path2865"
       inkscape:connector-curvature="0"
       sodipodi:nodetypes="cccccccccc" />
    <path
       style="fill:none;stroke:#10181f;stroke-width:2.72526836;stroke-linecap:butt;stroke-linejoin:round;stroke-miterlimit:4;stroke-dasharray:none;stroke-opacity:1"
       d="m -220.92474,-994.3685 -5.03966,7.75781 c 12.22623,16.96392 36.99518,22.50868 54.56205,11.5253"
       id="path2867"
       inkscape:connector-curvature="0"
       sodipodi:nodetypes="ccc" />
    <path
       style="fill:none;stroke:#10181f;stroke-width:2.725;stroke-linecap:butt;stroke-linejoin:round;stroke-miterlimit:4;stroke-dasharray:none;stroke-opacity:1"
       d="m -205.77425,-978.93359 c 10.84529,14.89225 19.32184,10.59771 26.96052,-0.4836 v 0"
       id="path2869"
       inkscape:connector-curvature="0"
       sodipodi:nodetypes="ccc" />
    <path
       style="fill:#10181f;fill-opacity:1;stroke:#10181f;stroke-width:0.24551967px;stroke-linecap:butt;stroke-linejoin:miter;stroke-opacity:1"
       d="m -220.64484,-996.94756 c 5.36591,-7.14514 10.40816,-17.45634 14.5079,-47.39244 -10.43974,-1.0884 -33.63996,9.3329 -30.70838,35.0607 2.13551,9.0025 8.67612,19.94599 16.20048,12.33174 z"
       id="path2871"
       inkscape:connector-curvature="0"
       sodipodi:nodetypes="cccc" />
    <path
       style="fill:none;stroke:#10181f;stroke-width:2.72526836;stroke-linecap:butt;stroke-linejoin:miter;stroke-miterlimit:4;stroke-dasharray:none;stroke-opacity:1"
       d="m -209.03852,-1042.4057 c 12.57125,-5.8716 25.26364,-4.0474 35.90705,0.3628"
       id="path2875"
       inkscape:connector-curvature="0"
       sodipodi:nodetypes="cc" />
    <ellipse
       style="opacity:1;fill:none;fill-opacity:1;stroke:#10181f;stroke-width:2.72526836;stroke-linecap:butt;stroke-linejoin:round;stroke-miterlimit:4;stroke-dasharray:none;stroke-opacity:1;paint-order:markers fill stroke"
       id="ellipse2877"
       cx="-202.14726"
       cy="-1017.0168"
       rx="3.9896719"
       ry="3.8687727" />
  </g>
  <g
     id="g4076"
     transform="translate(-358.48281,1055.7516)"
     inkscape:export-filename="C:\Users\Tim\Desktop\furbabies\images\final icons\dog-bowl.png"
     inkscape:export-xdpi="91.599998"
     inkscape:export-ydpi="91.599998">
    <path
       inkscape:export-ydpi="43.125916"
       inkscape:export-xdpi="43.125916"
       inkscape:connector-curvature="0"
       id="path1378"
       d="m 429.40057,-951.61643 c -3.48501,-0.1646 -8.81388,-0.64991 -9.13553,-0.83201 -0.14454,-0.0818 -0.75881,-0.2053 -1.36503,-0.27441 -0.60623,-0.0691 -1.17901,-0.17448 -1.27286,-0.23419 -0.0938,-0.0597 -0.66972,-0.19866 -1.27972,-0.30877 -1.97195,-0.35597 -3.66128,-0.74567 -3.96481,-0.9146 -0.16296,-0.0907 -0.4122,-0.16491 -0.55387,-0.16491 -0.25349,0 -2.06583,-0.56635 -2.73306,-0.85405 -0.1877,-0.0809 -0.6292,-0.24445 -0.98112,-0.36336 -0.35192,-0.11888 -0.63986,-0.27752 -0.63986,-0.35253 0,-0.075 -0.13437,-0.13731 -0.2986,-0.13851 -0.16424,-0.002 -0.72229,-0.21709 -1.24012,-0.47978 -1.36957,-0.69478 -2.79929,-1.46724 -2.89764,-1.56561 -0.0469,-0.0469 -0.73955,-0.52203 -1.53916,-1.05577 -1.38514,-0.92461 -3.04125,-2.49563 -4.52135,-4.28907 -1.26027,-1.52707 -2.82562,-4.97242 -3.23083,-7.11112 -0.0622,-0.32844 -0.18098,-0.75076 -0.26389,-0.93845 -0.17483,-0.39578 -0.42495,-1.45632 -0.82494,-3.4979 -0.15629,-0.79768 -0.33302,-1.52712 -0.39272,-1.62098 -0.0597,-0.0938 -0.16324,-0.65066 -0.23008,-1.23735 -0.0668,-0.58672 -0.18177,-1.104 -0.25542,-1.14951 -0.0736,-0.0455 -0.18903,-0.52526 -0.25641,-1.06611 -0.0674,-0.54088 -0.18699,-1.10421 -0.26579,-1.2519 -0.15422,-0.28906 -0.57503,-2.35635 -0.90048,-4.42378 -0.11079,-0.70385 -0.2503,-1.35652 -0.31,-1.45035 -0.0597,-0.0939 -0.16443,-0.66973 -0.2327,-1.27974 -0.0683,-0.60999 -0.173,-1.18586 -0.23271,-1.27971 -0.10883,-0.17107 -0.53608,-2.73353 -0.88193,-5.28952 -0.10159,-0.75076 -0.24767,-1.48328 -0.32462,-1.62782 -0.077,-0.14454 -0.19712,-0.75573 -0.26704,-1.35818 -0.0699,-0.60244 -0.1871,-1.21362 -0.26039,-1.35816 -0.0733,-0.14456 -0.2566,-1.33782 -0.40733,-2.65162 -0.15073,-1.3139 -0.39137,-3.2334 -0.53476,-4.2657 -0.31834,-2.2919 -0.78126,-6.3281 -0.79257,-6.9105 -0.0127,-0.6518 0.36218,-2.7651 0.52728,-2.9727 0.0805,-0.1012 0.2046,-0.3759 0.27586,-0.6105 0.30273,-0.9967 2.35834,-3.3584 4.17793,-4.8001 0.85447,-0.677 3.97487,-2.537 4.25624,-2.537 0.0991,0 0.18012,-0.068 0.18012,-0.1521 0,-0.084 0.19506,-0.2011 0.43347,-0.261 0.23841,-0.06 1.00269,-0.3752 1.6984,-0.701 0.69571,-0.3257 1.3683,-0.5922 1.49464,-0.5922 0.12634,0 0.30265,-0.067 0.39181,-0.1479 0.20435,-0.1865 2.7225,-1.0465 3.0643,-1.0465 0.13994,0 0.25444,-0.068 0.25444,-0.1513 0,-0.083 0.36472,-0.2058 0.81049,-0.2726 0.44576,-0.067 0.84888,-0.1741 0.8958,-0.2385 0.0998,-0.1369 2.06347,-0.6499 3.41259,-0.8915 0.51615,-0.092 1.0567,-0.2319 1.20121,-0.3099 0.14451,-0.078 0.67893,-0.1991 1.1876,-0.2691 0.50866,-0.07 1.04308,-0.1943 1.18759,-0.2764 0.14452,-0.082 1.14576,-0.2697 2.22499,-0.4169 1.07923,-0.1472 2.65329,-0.3804 3.4979,-0.5183 0.84462,-0.1378 2.49546,-0.3449 3.66853,-0.4603 1.17308,-0.1153 2.23123,-0.2723 2.35146,-0.3487 0.12022,-0.076 3.57546,-0.2134 7.67831,-0.3045 7.82422,-0.1736 19.56113,0.037 20.13319,0.3616 0.16191,0.092 1.0622,0.2428 2.00067,0.3355 4.11873,0.407 8.81982,1.0929 9.30615,1.3577 0.14455,0.079 0.75882,0.1995 1.36504,0.2684 0.60622,0.069 1.18719,0.1938 1.29104,0.2775 0.10385,0.084 0.52615,0.2217 0.93846,0.3066 2.09447,0.4316 3.48855,0.7782 3.56542,0.8866 0.0471,0.066 0.39267,0.1763 0.76783,0.2441 0.37517,0.068 0.75891,0.1812 0.85276,0.2519 0.0939,0.071 0.43937,0.1848 0.76783,0.2534 0.32846,0.069 0.67399,0.1851 0.76783,0.259 0.0938,0.074 0.51616,0.2217 0.93846,0.3286 0.42231,0.107 0.9214,0.2636 1.1091,0.3481 0.18769,0.085 1.01765,0.4652 1.84435,0.846 0.8267,0.3809 1.56912,0.6924 1.64981,0.6924 0.15774,0 1.2274,0.5379 1.36864,0.6882 0.047,0.05 0.66132,0.4268 1.36516,0.8373 1.54059,0.8985 2.3227,1.4851 3.64533,2.734 1.12034,1.0578 2.66796,3.0063 2.66796,3.359 0,0.1268 0.0647,0.2305 0.14386,0.2305 0.0791,0 0.30581,0.5951 0.50376,1.3224 0.3408,1.2521 0.34768,1.422 0.12967,3.1993 -0.12663,1.0323 -0.28078,2.6063 -0.34256,3.4979 -0.0618,0.8915 -0.1806,1.7745 -0.26405,1.9622 -0.0835,0.1877 -0.22976,1.0323 -0.32512,1.8769 -0.27094,2.3998 -0.67151,5.36027 -0.76864,5.68085 -0.0485,0.16017 -0.16917,0.98224 -0.26809,1.82686 -0.0989,0.84462 -0.25148,1.68922 -0.33902,1.87691 -0.0875,0.18772 -0.23769,0.87875 -0.33367,1.53568 -0.39629,2.71222 -1.26111,7.44713 -1.40243,7.67832 -0.0574,0.0938 -0.15969,0.7081 -0.2274,1.36503 -0.0677,0.65691 -0.19176,1.27836 -0.27567,1.38099 -0.0839,0.1026 -0.2269,0.64009 -0.31774,1.19439 -0.25154,1.53474 -0.76331,3.88753 -0.88728,4.07915 -0.0607,0.0939 -0.16605,0.63134 -0.23407,1.19442 -0.068,0.56307 -0.17167,1.10055 -0.23034,1.19441 -0.0587,0.0938 -0.20014,0.59292 -0.31439,1.10907 -0.6423,2.90181 -0.83145,3.68527 -0.92685,3.83917 -0.0582,0.0938 -0.15971,0.49655 -0.22562,0.8949 -0.0659,0.39837 -0.18995,0.76763 -0.27563,0.82058 -0.0857,0.0529 -0.15839,0.2645 -0.16157,0.4701 -0.003,0.20563 -0.15415,0.681 -0.33547,1.05638 -0.18132,0.37538 -0.33228,0.74602 -0.33547,0.82362 -0.003,0.0776 -0.44434,0.88384 -0.98036,1.79161 -0.72124,1.22148 -1.40896,2.08166 -2.64574,3.30917 -1.6056,1.59359 -3.76719,3.37491 -4.09537,3.37491 -0.0864,0 -0.47806,0.21218 -0.87035,0.47153 -1.20624,0.79745 -4.1963,2.19583 -5.06787,2.37014 -0.28349,0.0567 -0.55676,0.16997 -0.60727,0.25168 -0.0505,0.0817 -0.22167,0.14908 -0.38036,0.14964 -0.15869,0 -0.48763,0.10495 -0.73098,0.23194 -0.24334,0.12698 -0.74243,0.28696 -1.10909,0.35548 -0.36665,0.0685 -0.74342,0.18622 -0.83727,0.26153 -0.20596,0.16531 -2.30961,0.6454 -3.83916,0.87617 -0.61,0.092 -1.22735,0.23098 -1.37189,0.30877 -0.14454,0.0778 -0.83559,0.19775 -1.53567,0.26661 -0.70007,0.0688 -1.34964,0.18668 -1.44349,0.2619 -0.0938,0.0752 -1.39916,0.22876 -2.9007,0.34126 -1.50153,0.1125 -2.84524,0.26344 -2.98601,0.33543 -0.35358,0.18086 -15.36925,0.31977 -18.51328,0.17127 z m 17.74545,-2.9922 c 4.82383,-0.46121 8.59382,-0.94608 8.8994,-1.14457 0.10852,-0.0705 0.646,-0.19597 1.19441,-0.27886 1.46687,-0.22172 3.70155,-0.72001 3.89779,-0.86916 0.0938,-0.0713 0.45532,-0.18093 0.80328,-0.24361 0.34796,-0.0627 0.84705,-0.22577 1.10909,-0.36245 0.26204,-0.13668 0.63001,-0.25142 0.8177,-0.255 0.18769,-0.004 0.49031,-0.11921 0.67247,-0.25699 0.18217,-0.13778 0.45091,-0.25011 0.59721,-0.2496 0.36292,0 5.12892,-2.39973 5.12892,-2.58382 0,-0.0809 0.0875,-0.14716 0.19442,-0.14716 0.56025,0 4.63393,-3.75755 4.93653,-4.55343 0.0895,-0.23533 0.31965,-0.46891 0.51152,-0.51907 0.20433,-0.0534 0.31216,-0.18688 0.26028,-0.32206 -0.0487,-0.12695 0.0227,-0.44321 0.1587,-0.70275 0.44545,-0.85016 0.93435,-2.06904 0.93435,-2.32942 0,-0.14038 0.0667,-0.29645 0.14822,-0.34685 0.0815,-0.0504 0.19813,-0.40378 0.25915,-0.78533 0.061,-0.38158 0.18269,-0.82479 0.27039,-0.98491 0.1537,-0.28066 0.5388,-2.005 0.88431,-3.95968 0.0912,-0.51616 0.23514,-1.09202 0.31977,-1.27971 0.0846,-0.18772 0.23044,-0.72518 0.324,-1.19442 0.43113,-2.1622 0.68408,-3.27684 0.83268,-3.66932 0.0887,-0.23418 0.21766,-0.92486 0.28665,-1.53487 0.069,-0.60999 0.18511,-1.18588 0.25804,-1.27972 0.0729,-0.0938 0.18812,-0.66972 0.25595,-1.27971 0.0678,-0.61001 0.18296,-1.18588 0.25584,-1.27974 0.0729,-0.0938 0.18747,-0.59294 0.25462,-1.10909 0.0671,-0.51613 0.21985,-1.32238 0.33932,-1.79159 0.11948,-0.46924 0.27361,-1.42902 0.34253,-2.13287 0.0689,-0.70385 0.18503,-1.3565 0.25804,-1.45036 0.073,-0.0938 0.18906,-0.74342 0.25791,-1.4435 0.0688,-0.70005 0.18813,-1.39111 0.26508,-1.53565 0.077,-0.14454 0.22213,-0.87706 0.32262,-1.62784 0.1005,-0.75077 0.29268,-2.01766 0.42709,-2.81536 0.1344,-0.7977 0.24854,-1.7639 0.25366,-2.1471 0.005,-0.3832 0.0669,-0.7535 0.13727,-0.8228 0.0704,-0.069 0.22106,-0.9459 0.33484,-1.948 0.11377,-1.0021 0.28259,-2.3595 0.37515,-3.0164 0.0926,-0.6569 0.17224,-2.3709 0.17705,-3.8088 0.008,-2.4832 -0.0124,-2.6505 -0.41439,-3.3364 -0.66302,-1.1313 -2.68903,-3.1064 -4.14057,-4.0364 -0.72764,-0.4662 -1.41256,-0.8477 -1.52205,-0.8477 -0.10949,0 -0.22466,-0.058 -0.25595,-0.128 -0.0731,-0.1644 -2.93315,-1.5783 -3.19266,-1.5783 -0.10786,0 -0.32944,-0.071 -0.4924,-0.1584 -0.75316,-0.4027 -1.87804,-0.8654 -2.1038,-0.8654 -0.13718,0 -0.40361,-0.108 -0.59207,-0.24 -0.18846,-0.132 -0.70464,-0.2943 -1.14706,-0.3607 -0.44242,-0.066 -0.8044,-0.1799 -0.8044,-0.2525 0,-0.072 -0.35681,-0.1854 -0.79291,-0.2508 -0.4361,-0.065 -0.916,-0.1837 -1.06643,-0.263 -0.46829,-0.2467 -1.93078,-0.6463 -3.08891,-0.844 -0.61,-0.1042 -1.26266,-0.2625 -1.45035,-0.3519 -0.37061,-0.1764 -1.70171,-0.4337 -3.58321,-0.6925 -0.65693,-0.09 -1.50154,-0.2328 -1.87693,-0.3166 -0.37538,-0.084 -1.45035,-0.2432 -2.38881,-0.3546 -0.93846,-0.1113 -1.85986,-0.2669 -2.04755,-0.3458 -0.18769,-0.079 -1.33944,-0.1944 -2.55944,-0.2567 -1.22,-0.062 -2.30496,-0.1839 -2.41102,-0.2702 -0.59448,-0.4834 -23.14454,-0.4988 -24.05332,-0.016 -0.17845,0.095 -1.16907,0.2279 -2.20138,0.2958 -1.03231,0.068 -1.95371,0.1812 -2.04755,0.2517 -0.0938,0.07 -0.9452,0.1792 -1.89189,0.2418 -0.94669,0.063 -2.13683,0.1882 -2.64475,0.2791 -0.50793,0.091 -1.46098,0.2485 -2.1179,0.3501 -0.65693,0.1015 -1.27119,0.2448 -1.36504,0.3183 -0.0939,0.074 -0.66705,0.1879 -1.27379,0.2539 -0.60673,0.066 -1.18261,0.1721 -1.27972,0.2356 -0.0971,0.063 -0.75243,0.243 -1.45628,0.3991 -0.70384,0.1561 -1.74042,0.4107 -2.30349,0.5657 -0.56308,0.1551 -1.32789,0.3577 -1.69958,0.4503 -0.37169,0.093 -0.75561,0.234 -0.85314,0.3141 -0.0975,0.08 -0.5396,0.1997 -0.98234,0.2656 -0.44275,0.066 -0.89365,0.2267 -1.00201,0.3572 -0.10837,0.1306 -0.36039,0.24 -0.56005,0.2432 -0.19966,0 -0.67015,0.1542 -1.04554,0.3355 -0.37538,0.1813 -0.76412,0.3323 -0.86387,0.3355 -0.0997,0 -0.57926,0.1977 -1.06559,0.4323 -0.48634,0.2346 -0.94111,0.4266 -1.01061,0.4266 -0.20258,0 -1.99151,0.9198 -2.17881,1.1203 -0.0938,0.1004 -0.53535,0.3692 -0.98112,0.5973 -0.44576,0.2281 -0.81048,0.4724 -0.81048,0.5429 0,0.071 -0.0977,0.1283 -0.21704,0.1283 -0.40167,0 -3.3497,3.0743 -3.79147,3.9538 -0.36313,0.723 -0.4258,1.0756 -0.41429,2.3308 0.007,0.8135 0.0811,2.0933 0.16371,2.8441 0.49302,4.4824 0.64148,5.6586 0.7445,5.8987 0.0632,0.1474 0.2305,1.1456 0.37168,2.2182 0.14117,1.0726 0.34941,2.65479 0.46273,3.51594 0.11333,0.86118 0.26364,1.62261 0.33402,1.69208 0.0704,0.0695 0.12797,0.40454 0.12797,0.74456 0,0.34002 0.11309,1.0524 0.2513,1.58304 0.13822,0.53065 0.33799,1.67932 0.44394,2.55264 0.10595,0.8733 0.2537,1.703 0.32834,1.84375 0.0746,0.14077 0.19144,0.79344 0.25958,1.45035 0.0681,0.65693 0.17198,1.2712 0.23076,1.36503 0.10802,0.17247 0.32493,1.21439 0.79364,3.81234 0.14125,0.78295 0.32365,1.55078 0.40534,1.70629 0.0817,0.15553 0.20434,0.70509 0.27258,1.22124 0.0682,0.51616 0.18278,1.01524 0.25453,1.1091 0.0718,0.0938 0.18601,0.63132 0.25389,1.19439 0.0679,0.56307 0.17334,1.10056 0.23434,1.19442 0.061,0.0938 0.2388,0.82326 0.39508,1.62097 0.39758,2.02924 0.67105,3.1279 0.82819,3.32726 0.074,0.0939 0.18925,0.61315 0.25619,1.154 0.0669,0.54086 0.18429,1.02207 0.2608,1.06936 0.0765,0.0473 0.23332,0.50697 0.34847,1.02151 0.11515,0.51456 0.27393,0.93555 0.35284,0.93555 0.0789,0 0.14348,0.11545 0.14348,0.25657 0,0.64161 1.60491,3.04721 2.93458,4.39868 1.20527,1.22502 3.45525,2.9268 4.69329,3.54979 0.45005,0.22647 0.85667,0.459 0.90359,0.51672 0.0469,0.0577 0.27728,0.16407 0.51189,0.23629 0.23462,0.0722 0.46497,0.17855 0.51189,0.23629 0.14301,0.17595 1.23961,0.66474 1.96224,0.87463 0.37538,0.10903 0.92447,0.30678 1.22019,0.43946 0.29572,0.13269 0.6943,0.24123 0.88573,0.24123 0.19144,0 0.39014,0.0681 0.44156,0.15128 0.0514,0.0832 0.38229,0.20525 0.73525,0.27121 0.35295,0.066 0.71853,0.18142 0.81237,0.25659 0.18398,0.14735 2.26655,0.62126 3.92447,0.89306 0.56308,0.0923 1.10056,0.22939 1.19441,0.30458 0.0939,0.0752 0.78489,0.188 1.53566,0.25061 0.75077,0.0626 1.557,0.18159 1.79161,0.26436 0.69054,0.24359 6.45987,0.72861 10.23776,0.86069 4.81456,0.16832 11.99353,0.0396 15.27132,-0.27374 z"
       style="opacity:1;fill:#10181f;fill-opacity:1;stroke:#000000;stroke-width:0;stroke-linejoin:round;stroke-miterlimit:4;stroke-dasharray:none;stroke-opacity:1" />
    <path
       inkscape:export-ydpi="43.125916"
       inkscape:export-xdpi="43.125916"
       inkscape:connector-curvature="0"
       id="path1380"
       d="m 432.20174,-999.46111 c -0.0391,-0.0383 -2.25942,-0.15719 -4.93403,-0.26422 -2.67462,-0.10702 -5.0165,-0.26704 -5.2042,-0.35557 -0.18769,-0.089 -0.99391,-0.2371 -1.7916,-0.33 -2.52404,-0.294 -5.007,-0.6472 -5.8014,-0.8253 -0.42231,-0.095 -1.26692,-0.2261 -1.87692,-0.2922 -0.61,-0.066 -1.18588,-0.1689 -1.27972,-0.2286 -0.0939,-0.06 -0.66972,-0.1984 -1.27972,-0.3082 -0.61,-0.1097 -1.5314,-0.3163 -2.04755,-0.459 -0.51616,-0.1426 -1.39916,-0.3805 -1.96224,-0.5286 -0.56308,-0.1481 -1.14147,-0.3349 -1.28532,-0.4151 -0.14385,-0.08 -0.52777,-0.2029 -0.85315,-0.2726 -0.32538,-0.07 -0.66838,-0.1858 -0.76223,-0.258 -0.0938,-0.072 -0.43824,-0.1885 -0.76533,-0.2586 -0.32708,-0.07 -0.74939,-0.2249 -0.93846,-0.3442 -0.18907,-0.1192 -0.61047,-0.2726 -0.93644,-0.3408 -0.32598,-0.068 -0.86346,-0.2949 -1.19441,-0.5037 -0.33095,-0.2089 -0.79368,-0.4384 -1.02829,-0.5101 -0.23462,-0.072 -0.54175,-0.2275 -0.68252,-0.346 -0.14077,-0.1186 -0.42871,-0.2683 -0.63986,-0.3326 -0.21115,-0.064 -0.38392,-0.1886 -0.38392,-0.2761 0,-0.088 -0.0831,-0.1592 -0.18457,-0.1592 -0.52618,0 -3.48464,-2.8121 -3.94918,-3.7538 -0.98192,-1.9906 -0.59202,-3.4909 1.42555,-5.4853 0.53612,-0.53 1.30767,-1.1926 1.71456,-1.4725 1.48215,-1.0198 5.28421,-2.9387 5.82254,-2.9387 0.14841,0 0.31204,-0.068 0.36361,-0.1517 0.0516,-0.083 0.30566,-0.2007 0.56462,-0.2606 0.84626,-0.1955 2.85762,-0.8562 2.94497,-0.9674 0.0469,-0.06 0.46923,-0.1649 0.93846,-0.2336 0.46923,-0.069 0.9329,-0.1905 1.03037,-0.2706 0.0975,-0.08 0.70565,-0.23 1.35149,-0.3332 0.64585,-0.1032 1.2554,-0.2377 1.35455,-0.299 0.25825,-0.1596 2.19023,-0.5529 3.68596,-0.7504 0.70385,-0.093 1.43329,-0.2347 1.62098,-0.3149 0.18769,-0.08 1.30105,-0.231 2.47413,-0.3349 1.17307,-0.104 2.47839,-0.2665 2.90069,-0.3612 0.42231,-0.095 1.8428,-0.2406 3.15665,-0.3241 1.31384,-0.083 2.77272,-0.2295 3.24195,-0.3244 1.10402,-0.2233 19.25949,-0.2226 20.64615,0 0.56308,0.091 2.09874,0.2715 3.41258,0.4018 2.28942,0.2269 6.32084,0.7149 9.21399,1.1154 0.75076,0.1039 1.5186,0.2553 1.70629,0.3364 0.18769,0.081 0.72517,0.1983 1.1944,0.2604 0.46923,0.062 0.92993,0.1746 1.02378,0.2499 0.0938,0.075 0.74227,0.2247 1.44095,0.332 0.69867,0.1073 1.35514,0.2655 1.45881,0.3516 0.10368,0.086 0.53021,0.2086 0.94786,0.2725 0.41765,0.064 0.83615,0.1755 0.93,0.2481 0.0939,0.073 0.45941,0.1861 0.81237,0.252 0.35296,0.066 0.6806,0.1828 0.72809,0.2597 0.0475,0.077 0.50733,0.2339 1.02189,0.349 0.51455,0.1152 0.93555,0.2644 0.93555,0.3315 0,0.067 0.24518,0.1712 0.54485,0.2312 0.29967,0.06 1.10883,0.3766 1.79812,0.7038 0.6893,0.3272 1.32712,0.5949 1.41739,0.5949 0.0903,0 0.16411,0.068 0.16411,0.1521 0,0.084 0.21039,0.2049 0.46752,0.2695 0.25714,0.064 0.50669,0.1755 0.55455,0.2466 0.0479,0.071 0.47094,0.3501 0.94017,0.6201 0.99446,0.5722 2.91729,2.4328 3.48811,3.3751 0.50846,0.8395 0.56277,2.9438 0.10107,3.9167 -0.33388,0.7036 -2.7541,3.1933 -3.10418,3.1933 -0.12598,0 -0.22905,0.059 -0.22905,0.1302 0,0.1486 0.0594,0.1159 -2.75437,1.5169 -1.15971,0.5775 -2.64605,1.2302 -3.30298,1.4504 -0.65692,0.2202 -1.23279,0.4483 -1.27971,0.5069 -0.0469,0.059 -0.35154,0.1644 -0.67692,0.235 -0.32538,0.071 -0.7093,0.1886 -0.85315,0.262 -0.28726,0.1466 -2.47243,0.7451 -3.41818,0.9362 -0.32847,0.066 -0.67399,0.1812 -0.76784,0.2552 -0.0938,0.074 -0.63132,0.1897 -1.1944,0.2573 -0.56308,0.068 -1.10056,0.1801 -1.19441,0.2501 -0.0938,0.07 -0.66972,0.1799 -1.27972,0.2441 -0.61,0.064 -1.41622,0.1988 -1.7916,0.299 -2.31929,0.619 -8.85865,1.31348 -15.6979,1.66714 -3.43188,0.17744 -12.06602,0.2553 -12.21421,0.11013 z"
       style="opacity:1;fill:#10181f;fill-opacity:1;stroke:#000000;stroke-width:0;stroke-linejoin:round;stroke-miterlimit:4;stroke-dasharray:none;stroke-opacity:1" />
    <path
       inkscape:export-ydpi="43.125916"
       inkscape:export-xdpi="43.125916"
       inkscape:connector-curvature="0"
       id="path1382"
       d="m 416.09149,-967.85506 c -0.46923,-0.185 -0.97437,-0.44589 -1.12253,-0.57974 -0.14816,-0.13386 -0.32483,-0.24338 -0.39261,-0.24338 -0.20775,0 -1.29122,-1.2513 -1.51439,-1.74895 -0.11573,-0.25807 -0.26236,-0.46924 -0.32584,-0.46924 -0.0635,0 -0.16878,-0.24953 -0.23399,-0.55454 -0.0652,-0.30501 -0.20012,-0.65562 -0.29978,-0.77913 -0.0997,-0.12354 -0.18015,-0.81457 -0.17887,-1.53568 0.003,-1.44029 0.24614,-2.13893 1.31151,-3.7616 0.62814,-0.95673 0.63516,-1.38513 0.0339,-2.07083 -0.12358,-0.14093 -0.47771,-0.71694 -0.78697,-1.28004 -0.48119,-0.87614 -0.56395,-1.19841 -0.57392,-2.235 -0.0114,-1.18577 0.0421,-1.37823 0.81693,-2.93759 0.48254,-0.97116 1.9379,-2.42455 2.94742,-2.94342 0.73752,-0.37908 1.00772,-0.41545 3.08677,-0.41545 1.48944,0 2.32063,0.0659 2.40017,0.19029 0.0669,0.10466 0.29349,0.24392 0.50348,0.30945 0.63077,0.19681 2.69754,2.33628 3.17884,3.29064 0.24677,0.48933 0.59377,0.96734 0.77112,1.06225 0.87123,0.46627 9.26205,0.87577 13.92942,0.67982 2.8767,-0.1208 7.46128,-0.41638 7.51514,-0.48455 0.006,-0.008 0.27496,-0.52406 0.5972,-1.14708 0.68731,-1.32883 1.94727,-2.53227 3.46388,-3.30851 0.93177,-0.47688 1.18174,-0.52736 2.62561,-0.53033 0.87769,-0.002 1.68767,0.0706 1.79995,0.16096 0.11228,0.0903 0.45369,0.21758 0.75869,0.28281 0.305,0.0652 0.55454,0.17179 0.55454,0.23686 0,0.065 0.27534,0.26653 0.61185,0.44776 0.91705,0.49387 2.24831,2.03717 2.47685,2.87138 0.10788,0.39374 0.31085,0.97719 0.45106,1.29658 0.32627,0.74321 0.18175,2.10239 -0.34172,3.21383 -0.40579,0.86158 -0.41238,0.87187 -1.06831,1.6656 -0.56001,0.67767 -0.5363,0.91221 0.18814,1.86098 0.33637,0.44054 0.68396,1.04665 0.77242,1.3469 0.22281,0.75629 0.20868,3.19847 -0.0235,4.0607 -0.72209,2.68165 -3.20273,4.41936 -6.30875,4.41936 -2.55619,0 -4.52965,-1.07638 -5.79861,-3.16268 -0.22624,-0.37197 -0.45536,-0.7147 -0.50914,-0.76162 -0.0538,-0.0469 -0.18815,-0.29116 -0.29857,-0.54272 -0.16591,-0.37801 -0.34308,-0.47511 -1.0203,-0.55929 -0.45074,-0.056 -1.24184,-0.19571 -1.75799,-0.31043 -1.31521,-0.29226 -15.40374,-0.29268 -16.72167,0 -0.51616,0.11444 -1.20721,0.24958 -1.53567,0.3003 -0.51764,0.0799 -0.67676,0.23124 -1.1944,1.13574 -0.84104,1.46958 -2.15623,2.74915 -3.47026,3.37628 -1.01067,0.48234 -1.23709,0.52364 -2.78211,0.50762 -1.23917,-0.0129 -1.90647,-0.10599 -2.53504,-0.35384 z m 4.62081,-2.68254 c 0.75343,-0.34219 1.61717,-1.33182 2.28901,-2.62264 0.38874,-0.74686 0.80705,-1.27013 1.41233,-1.76666 0.39219,-0.3217 3.33746,-0.7386 6.63358,-0.93894 6.09723,-0.37062 15.5788,0.16362 17.17773,0.96787 0.64996,0.32692 1.49368,1.40779 1.64824,2.11152 0.15108,0.68783 1.21396,1.73337 2.30582,2.26822 0.72911,0.35714 2.19725,0.38925 2.97322,0.065 0.88734,-0.37075 1.94679,-1.42114 2.1419,-2.12359 0.24027,-0.86504 0.216,-2.07678 -0.0518,-2.58529 -0.41097,-0.78042 -0.71053,-1.27878 -0.82052,-1.36504 -0.22402,-0.17566 -0.65904,-1.42453 -0.65904,-1.89197 0,-0.42482 0.43995,-1.62221 0.68411,-1.86187 0.2505,-0.2459 0.98768,-1.51895 1.14569,-1.97848 0.48389,-1.40739 -0.49595,-3.15599 -2.24577,-4.00775 -0.71863,-0.34981 -2.38774,-0.45139 -2.57004,-0.15644 -0.058,0.0939 -0.25182,0.17064 -0.43071,0.17064 -0.56548,0 -1.49879,1.00532 -2.11047,2.27334 -0.32489,0.67351 -0.85908,1.4834 -1.18708,1.79978 -0.65283,0.62968 -1.04272,0.71542 -4.71789,1.03769 -2.27782,0.19976 -12.61466,0.20008 -14.41818,0 -3.7373,-0.41363 -4.62042,-0.54682 -5.02292,-0.75764 -0.82606,-0.43266 -1.52948,-1.21339 -2.06411,-2.29096 -0.97325,-1.96157 -2.17396,-2.69285 -4.15976,-2.53346 -0.60146,0.0483 -1.21846,0.19316 -1.37111,0.32194 -1.01281,0.85444 -1.447,1.34094 -1.73189,1.94043 -0.37138,0.78154 -0.4417,2.32126 -0.11104,2.43147 0.11731,0.0391 0.21329,0.1466 0.21329,0.23889 0,0.16163 0.81534,1.33339 1.05193,1.51177 0.0635,0.0479 0.1684,0.29813 0.23316,0.55617 0.0648,0.25802 0.18602,0.51132 0.26947,0.56289 0.23765,0.14688 0.17817,0.98743 -0.11504,1.62574 -0.33252,0.72391 -0.34296,0.74129 -1.23615,2.05721 -0.68543,1.00984 -0.7281,1.13903 -0.6315,1.91225 0.15698,1.25653 1.04717,2.46784 2.21729,3.01716 0.89233,0.41888 2.34838,0.42349 3.25822,0.0103 z"
       style="opacity:1;fill:#10181f;fill-opacity:1;stroke:#000000;stroke-width:0;stroke-linejoin:round;stroke-miterlimit:4;stroke-dasharray:none;stroke-opacity:1" />
  </g>
  <g
     id="g4054"
     transform="translate(740.60185,1197.569)"
     inkscape:export-filename="C:\Users\Tim\Desktop\furbabies\images\final icons\single-dog.png"
     inkscape:export-xdpi="91.599998"
     inkscape:export-ydpi="91.599998">
    <path
       sodipodi:nodetypes="ccccccccccc"
       inkscape:connector-curvature="0"
       id="path2823-5"
       d="m -633.04714,-996.98303 -0.60646,5.21556 c -4.13063,19.72656 -23.13042,12.96543 -28.02212,11.31122 -8.8152,4.95358 -24.11087,5.79604 -28.17422,-11.14961 l -0.44693,-5.61975 m 28.62486,16.73827 v -10.30981 c -3.92049,-1.91587 -6.67178,-4.2702 -8.00526,-7.1562 5.595,-1.8149 11.29972,-2.87585 16.2531,0.1213 -1.37125,3.92124 -4.59643,5.72372 -8.20867,7.08384 l -0.009,10.26087"
       style="fill:none;stroke:#10181f;stroke-width:2.73411942;stroke-linecap:butt;stroke-linejoin:round;stroke-miterlimit:4;stroke-dasharray:none;stroke-opacity:1" />
    <path
       sodipodi:nodetypes="cccc"
       inkscape:connector-curvature="0"
       id="path2825-3"
       d="m -690.3351,-992.94007 -5.05603,7.783 c 15.46752,21.46119 50.94468,24.70519 66.71049,-0.54584 l -5.09425,-7.76265"
       style="fill:none;stroke:#10181f;stroke-width:2.73411942;stroke-linecap:butt;stroke-linejoin:round;stroke-miterlimit:4;stroke-dasharray:none;stroke-opacity:1" />
    <path
       sodipodi:nodetypes="ccc"
       inkscape:connector-curvature="0"
       id="path2827-1"
       d="m -675.1354,-977.45504 c 10.88051,14.9406 19.38459,10.63211 27.04807,-0.48517 v 0"
       style="fill:none;stroke:#10181f;stroke-width:2.73411942;stroke-linecap:butt;stroke-linejoin:round;stroke-miterlimit:4;stroke-dasharray:none;stroke-opacity:1" />
    <path
       sodipodi:nodetypes="cccc"
       inkscape:connector-curvature="0"
       id="path2829-9"
       d="m -690.05429,-995.52752 c 5.38334,-7.16828 10.44196,-17.51298 14.55502,-47.54638 -10.47365,-1.0919 -33.74922,9.3632 -30.80812,35.1746 2.14245,9.03176 8.70431,20.01077 16.2531,12.37178 z"
       style="fill:#10181f;fill-opacity:1;stroke:#000000;stroke-width:0.24631706px;stroke-linecap:butt;stroke-linejoin:miter;stroke-opacity:1" />
    <path
       sodipodi:nodetypes="cccc"
       inkscape:connector-curvature="0"
       id="path2829-4-1"
       d="m -633.28764,-995.55984 c -5.38334,-7.16826 -10.44196,-17.51296 -14.55502,-47.54636 10.47365,-1.0919 33.74922,9.3632 30.80812,35.1746 -2.14245,9.03178 -8.70431,20.01077 -16.2531,12.37176 z"
       style="fill:#10181f;fill-opacity:1;stroke:#10181f;stroke-width:0.24631706px;stroke-linecap:butt;stroke-linejoin:miter;stroke-opacity:1" />
    <path
       sodipodi:nodetypes="cc"
       inkscape:connector-curvature="0"
       id="path2846-5"
       d="m -678.41028,-1041.1332 c 12.61208,-5.8908 23.8902,-4.6671 34.56817,-0.2426"
       style="fill:none;stroke:#10181f;stroke-width:2.73411942;stroke-linecap:butt;stroke-linejoin:miter;stroke-miterlimit:4;stroke-dasharray:none;stroke-opacity:1" />
    <ellipse
       ry="3.8813376"
       rx="4.0026293"
       cy="-1015.662"
       cx="-671.49664"
       id="path2848-7"
       style="opacity:1;fill:none;fill-opacity:1;stroke:#10181f;stroke-width:2.73411942;stroke-linecap:butt;stroke-linejoin:round;stroke-miterlimit:4;stroke-dasharray:none;stroke-opacity:1;paint-order:markers fill stroke" />
    <ellipse
       ry="3.8813376"
       rx="4.0026293"
       cy="-1015.5406"
       cx="-652.21124"
       id="path2848-5-3"
       style="opacity:1;fill:none;fill-opacity:1;stroke:#10181f;stroke-width:2.73411942;stroke-linecap:butt;stroke-linejoin:round;stroke-miterlimit:4;stroke-dasharray:none;stroke-opacity:1;paint-order:markers fill stroke" />
  </g>
  <g
     id="g2622"
     inkscape:export-xdpi="91.599998"
     inkscape:export-ydpi="91.599998"
     style="stroke:#10181f;stroke-opacity:1">
    <path
       inkscape:export-filename="C:\Users\Tim\Desktop\furbabies\images\final icons\puppy.png"
       inkscape:export-ydpi="91.599998"
       inkscape:export-xdpi="91.599998"
       inkscape:connector-curvature="0"
       id="path2490"
       d="m 184.53825,231.11382 c -3.04912,-0.11493 -3.54702,-0.17384 -4.15803,-0.49195 -0.94506,-0.49204 -1.2499,-0.77212 -2.12864,-1.9557 -0.41561,-0.55978 -0.85474,-1.11871 -0.97586,-1.24205 -0.12112,-0.12335 -0.22022,-0.29519 -0.22022,-0.38186 0,-0.43699 -0.63669,-0.0201 -1.94458,1.2731 -0.7958,0.78688 -1.60028,1.47937 -1.78774,1.53887 -0.18747,0.0595 -0.34085,0.16948 -0.34085,0.24441 0,0.41527 -3.49477,0.85174 -6.85605,0.85625 -1.83903,0.002 -2.35442,-0.0571 -3.2246,-0.37271 -1.19822,-0.4346 -1.19063,-0.42945 -2.45346,-1.66528 -1.26973,-1.24258 -1.75579,-2.05869 -2.37281,-3.98396 -0.32046,-0.99993 -0.32036,-0.97795 -0.089,-19.687 l 0.1637,-13.2378 0.66992,-1.22424 c 0.5662,-1.03471 1.04998,-1.76188 2.01222,-3.0246 0.16577,-0.21754 0.11895,-0.3562 -0.42351,-1.25425 -0.64265,-1.06392 -1.94614,-3.72953 -2.34033,-4.78593 -0.125,-0.33498 -0.32721,-0.47562 -0.81494,-0.56677 -0.35678,-0.0667 -0.72506,-0.18023 -0.8184,-0.25235 -0.0933,-0.0721 -0.39276,-0.18457 -0.66537,-0.24989 -0.96945,-0.23227 -2.7162,-1.53903 -3.66823,-2.74424 -0.50924,-0.64467 -0.98355,-1.19758 -1.05402,-1.22869 -0.0705,-0.0311 -0.12813,-0.13388 -0.12813,-0.22837 0,-0.0945 -0.14273,-0.37453 -0.31717,-0.62229 -0.17444,-0.24777 -0.37566,-0.64142 -0.44716,-0.87478 -0.0715,-0.23336 -0.17919,-0.46247 -0.23931,-0.50915 -0.0601,-0.0467 -0.29168,-0.7259 -0.51456,-1.5094 -0.5653,-1.98719 -0.56689,-4.70836 -0.004,-6.97637 0.22005,-0.88676 0.46165,-1.63775 0.5369,-1.66887 0.0752,-0.0311 0.13713,-0.18385 0.13753,-0.33943 0.001,-0.51502 1.80121,-3.80354 2.75569,-5.03489 2.1021,-2.71185 4.45766,-4.57427 7.25679,-5.73757 0.75012,-0.31174 2.61544,-0.88963 3.39431,-1.05159 0.3267,-0.0679 0.6766,-0.18974 0.77756,-0.27068 0.24774,-0.19864 23.97641,-0.21244 24.22896,-0.0141 0.10792,0.0848 0.5344,0.20581 0.94772,0.26898 0.89236,0.13639 2.95825,0.81092 3.03882,0.9922 0.0311,0.07 0.13731,0.12728 0.23598,0.12728 0.46799,0 2.5542,1.23211 3.51596,2.07651 0.13447,0.11806 0.44819,0.36753 0.69716,0.55438 1.22165,0.91686 3.36276,4.00327 4.29714,6.19432 0.25874,0.60673 0.53866,1.25589 0.62204,1.44258 0.28516,0.63849 0.70765,2.37526 0.86699,3.56402 0.0876,0.65341 0.24098,1.57326 0.3409,2.04412 0.18198,0.85764 0.15027,1.50973 -0.1812,3.72621 -0.64189,4.29216 -2.89907,6.65948 -7.71296,8.08935 -1.07191,0.3184 -1.36889,0.47993 -1.50886,0.82071 -0.0958,0.23336 -0.2781,0.66494 -0.405,0.95908 -0.1269,0.29414 -0.23072,0.58809 -0.23072,0.65322 0,0.0651 -0.12755,0.38721 -0.28345,0.71574 -0.30733,0.64765 -0.20975,0.98424 0.37965,1.3095 0.18045,0.0996 0.6565,0.39108 1.05789,0.64777 0.40138,0.2567 0.76725,0.46672 0.81302,0.46672 0.0816,0 1.09067,0.68131 1.25748,0.84905 0.0467,0.0469 0.42277,0.31424 0.83578,0.59401 1.21193,0.82096 1.67588,1.23699 4.00111,3.58793 2.49762,2.52524 2.25607,2.24395 3.48578,4.05916 1.35568,2.00115 1.34605,1.9858 1.5642,2.49293 0.11042,0.25669 0.26039,0.46672 0.33327,0.46672 0.0729,0 0.1325,0.0689 0.1325,0.15306 0,0.0842 0.30549,0.79892 0.67887,1.58829 0.37337,0.78938 0.67886,1.5224 0.67886,1.62895 0,0.10655 0.0642,0.19372 0.14271,0.19372 0.0785,0 0.23641,0.41874 0.35095,0.93054 0.11454,0.5118 0.27279,0.97043 0.35167,1.01918 0.0789,0.0487 0.1949,0.39333 0.25782,0.76573 0.0629,0.37239 0.1753,0.71473 0.24975,0.76074 0.0745,0.046 0.18873,0.4395 0.25395,0.87441 0.0652,0.43491 0.18847,0.91318 0.2739,1.06281 0.0854,0.14963 0.21436,0.65319 0.28652,1.11901 0.0932,0.60131 0.21629,0.86335 0.42455,0.90345 0.18337,0.0353 0.29334,-0.0497 0.29334,-0.22676 0,-0.1558 0.11141,-0.48598 0.24758,-0.73374 0.13617,-0.24776 0.40764,-0.83233 0.60327,-1.29905 0.47523,-1.13375 0.58739,-1.39492 0.98394,-2.29116 0.71422,-1.61415 0.87311,-1.98529 1.30779,-3.05488 0.24658,-0.60673 0.66408,-1.56138 0.92777,-2.12144 0.2637,-0.56006 0.52476,-1.17104 0.58013,-1.35772 0.11862,-0.39992 0.99092,-0.93504 1.51546,-0.92966 0.73336,0.008 1.452,0.92173 1.72697,2.19695 0.0698,0.32364 0.19453,0.7055 0.27722,0.84858 0.53062,0.91812 0.98478,6.07413 0.80775,9.1702 -0.10953,1.91561 -0.60857,5.23803 -0.82849,5.51576 -0.0739,0.0933 -0.18785,0.49389 -0.2532,0.89011 -0.0653,0.39622 -0.17988,0.75815 -0.25452,0.80428 -0.0746,0.0461 -0.18821,0.37111 -0.25236,0.72217 -0.0642,0.35107 -0.21555,0.79218 -0.33642,0.98023 -0.12087,0.18806 -0.27403,0.58901 -0.34036,0.89101 -0.0663,0.302 -0.18262,0.54908 -0.25843,0.54908 -0.0758,0 -0.18581,0.19115 -0.24444,0.42476 -0.27531,1.09693 -2.38766,4.25993 -3.91794,5.86666 -1.53799,1.61483 -4.17101,3.27179 -5.54933,3.49219 -0.35935,0.0575 -0.69437,0.17082 -0.74448,0.2519 -0.0501,0.0811 -2.15339,0.14742 -4.67395,0.14742 -5.09904,0 -5.60352,-0.0791 -7.20992,-1.13034 -0.87228,-0.57083 -1.42501,-0.72047 -1.42501,-0.38577 0,0.3321 -0.91214,1.38226 -1.55075,1.7854 -0.64761,0.40881 -2.31667,0.76594 -3.371,0.72128 -0.32671,-0.0138 -2.15276,-0.0839 -4.0579,-0.15572 z m 5.85306,-3.28873 c 0.22613,-0.14816 0.41114,-0.41771 0.41114,-0.59898 0,-0.18127 0.11538,-0.66943 0.2564,-1.0848 0.20502,-0.60387 0.29294,-2.51823 0.43871,-9.55243 0.10026,-4.83846 0.23309,-10.41419 0.29517,-12.39051 0.10979,-3.49519 0.1241,-3.60525 0.52431,-4.03074 0.50483,-0.53672 1.42616,-0.58311 2.04943,-0.10319 l 0.42429,0.32669 -0.0593,12.18604 -0.0594,12.18605 0.82307,0.76595 c 1.65656,1.5416 1.5096,1.50671 6.51253,1.54611 3.17779,0.025 4.47633,-0.0207 4.61835,-0.16276 0.10867,-0.10866 0.31656,-0.19757 0.46199,-0.19757 0.26477,0 1.70775,-0.71503 2.17793,-1.07921 0.70424,-0.54549 2.55903,-2.50022 3.00505,-3.16698 0.27976,-0.41823 0.56295,-0.80113 0.6293,-0.85088 0.0663,-0.0498 0.49612,-0.81693 0.95505,-1.70483 0.92871,-1.79676 1.97557,-4.71275 2.15821,-6.01162 0.0656,-0.46672 0.18143,-0.92719 0.25734,-1.02328 0.42003,-0.53168 0.56018,-7.89316 0.15505,-8.14354 -0.0709,-0.0438 -0.25749,0.20605 -0.41463,0.55526 -0.15715,0.34922 -0.38991,0.86405 -0.51724,1.14408 -0.20051,0.44096 -0.57624,1.30481 -1.10727,2.54574 -0.0799,0.18668 -0.41668,0.93298 -0.74843,1.65844 -0.33176,0.72546 -0.60319,1.35972 -0.60319,1.40947 0,0.0497 -0.15931,0.44902 -0.35401,0.88728 -0.4765,1.07253 -0.90141,2.02641 -1.23578,2.77421 -0.15239,0.34081 -0.27708,0.67573 -0.27708,0.74426 0,0.0685 -0.19486,0.3052 -0.43303,0.52593 -0.60989,0.56522 -1.46344,0.53817 -2.09608,-0.0664 -0.4518,-0.43176 -0.50525,-0.61776 -0.69491,-2.41844 -0.11301,-1.07289 -0.26607,-2.06527 -0.34012,-2.20528 -0.0741,-0.14002 -0.18971,-0.77115 -0.257,-1.40252 -0.0673,-0.63136 -0.18257,-1.18514 -0.25615,-1.23062 -0.0736,-0.0455 -0.18769,-0.48356 -0.25355,-0.97351 -0.0659,-0.48994 -0.17877,-0.96718 -0.25088,-1.06053 -0.0721,-0.0933 -0.18342,-0.43702 -0.24736,-0.76372 -0.14324,-0.73197 -0.81939,-2.76927 -0.95754,-2.88516 -0.0556,-0.0467 -0.15333,-0.29797 -0.2171,-0.55844 -0.24177,-0.98751 -2.71476,-5.72975 -3.16043,-6.06046 -0.0629,-0.0467 -0.19764,-0.23761 -0.29945,-0.42429 -0.43285,-0.79376 -3.11981,-3.68147 -4.43418,-4.76546 -0.78333,-0.64602 -1.54504,-1.30823 -1.69271,-1.47158 -0.14766,-0.16335 -0.33097,-0.29701 -0.40735,-0.29701 -0.12394,0 -1.097,-0.62998 -1.31313,-0.85016 -0.20957,-0.21349 -1.5363,-1.01671 -1.67938,-1.01671 -0.0876,0 -0.18526,-0.0782 -0.21711,-0.17371 -0.0319,-0.0955 -0.32609,-0.21724 -0.65388,-0.27043 -0.56664,-0.0919 -0.62676,-0.0521 -1.22179,0.81015 -1.42305,2.06211 -3.94479,4.16676 -6.15898,5.14029 -0.55853,0.24557 -1.15043,0.52144 -1.31533,0.61303 -0.8697,0.4831 -3.94495,0.98008 -6.06451,0.98008 -2.06892,0 -5.08343,-0.47783 -6.0645,-0.96128 -0.16491,-0.0813 -0.67984,-0.33091 -1.14431,-0.55478 -1.55184,-0.74797 -3.56406,-1.97772 -4.80516,-2.93665 -0.67593,-0.52225 -1.33638,-0.94954 -1.46768,-0.94954 -0.27275,0 -1.62302,1.9826 -1.62302,2.38309 0,0.14546 -0.0674,0.33702 -0.14983,0.4257 -0.0834,0.0897 -0.17746,7.01803 -0.21215,15.62502 l -0.0623,15.46379 0.59401,1.15347 c 0.41227,0.80057 0.85362,1.35955 1.44258,1.82707 l 0.84857,0.6736 3.60066,-0.0826 3.60067,-0.0826 0.64222,-0.47607 c 0.59993,-0.44471 1.01752,-0.85577 2.84212,-2.79765 l 0.7176,-0.76372 -0.10102,-6.04133 c -0.10833,-6.47791 -0.10823,-6.47727 -0.9975,-6.66068 -1.16694,-0.24069 -3.02341,-0.71593 -3.1767,-0.81322 -0.0933,-0.0592 -0.51339,-0.16334 -0.93343,-0.23133 -0.42005,-0.068 -0.84009,-0.18273 -0.93344,-0.25496 -0.0933,-0.0722 -0.51339,-0.18647 -0.93343,-0.25386 -0.85039,-0.13643 -1.24308,-0.41475 -1.60292,-1.13605 -0.20607,-0.41307 -0.20801,-0.56893 -0.0129,-1.03328 0.34239,-0.81481 1.72144,-1.48672 2.02924,-0.98869 0.0517,0.0837 0.6085,0.24174 1.23729,0.35124 0.62879,0.1095 1.22105,0.26019 1.31613,0.33487 0.0951,0.0747 0.47837,0.18983 0.85174,0.25589 0.37338,0.0661 1.02254,0.22103 1.44259,0.34438 2.72332,0.79967 2.80493,0.81317 3.66587,0.60628 0.45737,-0.1099 1.25163,-0.27612 1.76502,-0.36937 0.51339,-0.0932 1.08618,-0.23622 1.27286,-0.31771 0.18669,-0.0815 0.75948,-0.22372 1.27287,-0.31606 0.51339,-0.0923 1.23892,-0.24811 1.6123,-0.34616 0.37337,-0.098 1.07427,-0.18008 1.55755,-0.18231 0.74967,-0.003 0.93033,0.0616 1.23043,0.44313 0.48359,0.61478 0.46916,1.59427 -0.0301,2.04368 -0.58762,0.52894 -0.87121,0.61877 -4.20045,1.33053 -0.70008,0.14966 -1.42562,0.33519 -1.6123,0.41227 -0.18669,0.0771 -0.64492,0.20615 -1.01829,0.28683 l -0.67886,0.14668 -0.0591,1.78202 c -0.10105,3.04783 0.3229,11.07563 0.60049,11.37093 0.13162,0.14002 0.76779,0.95193 1.41372,1.80425 l 1.17442,1.54968 0.98095,0.12834 c 1.44095,0.18852 5.59252,0.39469 6.63714,0.32961 0.49729,-0.031 1.08917,-0.17755 1.3153,-0.32572 z M 179.2618,192.27463 c 0.70008,-0.11377 1.34542,-0.27754 1.4341,-0.36395 0.0887,-0.0864 0.2796,-0.15758 0.42428,-0.15816 0.14469,-4.6e-4 0.4657,-0.10677 0.71337,-0.23599 0.24768,-0.12923 0.725,-0.32561 1.06073,-0.43641 0.33572,-0.1108 0.61041,-0.2719 0.61041,-0.35801 0,-0.0861 0.10287,-0.15655 0.2286,-0.15655 0.12573,0 0.40472,-0.15274 0.61997,-0.33943 0.21525,-0.18669 0.43697,-0.33993 0.49269,-0.34053 0.1,-9.2e-4 1.717,-1.55915 2.23505,-2.15357 0.14677,-0.16841 0.44823,-0.61169 0.6699,-0.98507 0.22167,-0.37337 0.44711,-0.71705 0.50097,-0.76372 0.10198,-0.0884 1.30413,-2.53074 1.75423,-3.56402 0.97792,-2.24498 0.96607,-2.12022 0.96607,-10.16549 v -7.46075 l 0.59275,-0.6285 c 0.51878,-0.55007 0.66543,-0.6167 1.17527,-0.53396 0.32038,0.052 0.76009,0.27202 0.97711,0.48896 l 0.3946,0.39444 0.0481,6.66149 c 0.0464,6.42416 0.0596,6.66149 0.37185,6.66149 0.17807,0 0.37097,-0.0764 0.42866,-0.16971 0.0577,-0.0933 0.22901,-0.16972 0.38072,-0.16972 0.94754,0 3.13823,-1.58799 3.61473,-2.62025 0.82086,-1.77826 0.92174,-2.30684 0.91421,-4.79038 -0.004,-1.43705 -0.0801,-2.49516 -0.18833,-2.63059 -0.0996,-0.12461 -0.23602,-0.60842 -0.3032,-1.07514 -0.0672,-0.46672 -0.18085,-0.92495 -0.25259,-1.01829 -0.0717,-0.0933 -0.18473,-0.39618 -0.25109,-0.67298 -0.0664,-0.27679 -0.26783,-0.82629 -0.44769,-1.22112 -0.17986,-0.39483 -0.32703,-0.79843 -0.32703,-0.8969 0,-0.0985 -0.0764,-0.17902 -0.16971,-0.17902 -0.0933,0 -0.16972,-0.0961 -0.16972,-0.21356 0,-0.75571 -3.67464,-5.04762 -4.32166,-5.04762 -0.1278,0 -0.25782,-0.0666 -0.28894,-0.14808 -0.0765,-0.20033 -1.7619,-1.03993 -2.08752,-1.03993 -0.14311,0 -0.26021,-0.0697 -0.26021,-0.1548 0,-0.0851 -0.32458,-0.20833 -0.72129,-0.27376 -0.39671,-0.0654 -0.79766,-0.17674 -0.89101,-0.24736 -0.43356,-0.32801 -2.28068,-0.37913 -12.89837,-0.35701 -10.87674,0.0227 -11.42257,0.0386 -12.55894,0.36752 -0.65341,0.18911 -1.32063,0.41619 -1.48271,0.50462 -0.16208,0.0884 -0.3912,0.16112 -0.50915,0.16153 -0.25126,8.5e-4 -2.68315,1.21211 -3.11178,1.54988 -1.23669,0.97455 -2.98029,2.86882 -3.88407,4.21971 -1.07982,1.61402 -1.95894,3.4333 -1.95894,4.05391 0,0.18172 -0.072,0.35586 -0.16008,0.38697 -0.15372,0.0543 -0.56488,2.48794 -0.56869,3.36603 -0.004,0.79738 0.41614,3.13962 0.57261,3.1963 0.0859,0.0311 0.15746,0.18386 0.15906,0.33943 0.003,0.30555 0.67198,1.49775 1.35482,2.4149 0.71688,0.96285 1.75726,1.87678 2.24822,1.97497 0.25698,0.0514 0.46723,0.16028 0.46723,0.24195 0,0.0817 0.14062,0.1485 0.3125,0.1485 0.28955,0 0.32066,-0.25221 0.42384,-3.43674 0.0612,-1.8902 0.11155,-4.85697 0.11179,-6.59282 2.3e-4,-2.52658 0.0536,-3.26257 0.26675,-3.6899 0.55388,-1.11028 1.55048,-1.35162 2.45132,-0.59362 l 0.53737,0.45217 -0.0576,8.24575 -0.0576,8.24575 1.24558,2.5033 c 0.68507,1.37682 1.31514,2.50331 1.40015,2.50331 0.085,0 0.15458,0.10393 0.15458,0.23095 0,0.60346 4.20899,4.35136 4.88669,4.35136 0.11262,0 0.20477,0.0712 0.20477,0.15828 0,0.0871 0.17184,0.21065 0.38186,0.27465 0.21002,0.064 0.49642,0.21051 0.63643,0.32556 0.14002,0.11506 0.71281,0.38355 1.27287,0.59663 0.56006,0.21309 1.17103,0.45343 1.35772,0.53408 0.18669,0.0806 0.90764,0.22496 1.60211,0.32069 0.69448,0.0957 1.30434,0.21571 1.35525,0.26662 0.13418,0.13417 2.43463,-0.0175 3.91612,-0.25829 z"
       style="opacity:1;fill:#10181f;fill-opacity:1;stroke:none;stroke-width:0.1;stroke-linejoin:round;stroke-miterlimit:4;stroke-dasharray:none;stroke-opacity:1" />
    <path
       inkscape:export-filename="C:\Users\Tim\Desktop\furbabies\images\final icons\puppy.png"
       inkscape:export-ydpi="91.599998"
       inkscape:export-xdpi="91.599998"
       inkscape:connector-curvature="0"
       id="path2492"
       d="m 173.73149,184.71816 c -0.86389,-0.42004 -1.01425,-0.5262 -1.66013,-1.17208 -1.06348,-1.06347 -1.56447,-2.09132 -1.56447,-3.20974 0,-1.41867 0.48076,-1.94188 2.69477,-2.93271 0.56726,-0.25387 5.62352,-0.24086 6.14614,0.0158 0.22473,0.11036 0.69649,0.3298 1.04836,0.48764 0.99711,0.44726 1.40222,1.14733 1.36944,2.36657 -0.0151,0.56006 -0.14824,1.2474 -0.29596,1.52744 -0.14772,0.28003 -0.26905,0.58683 -0.26962,0.68177 -4.7e-4,0.0949 -0.33969,0.55975 -0.75358,1.03289 -1.05461,1.20558 -2.12343,1.59831 -4.31161,1.58426 -1.32616,-0.009 -1.78563,-0.0815 -2.40334,-0.38186 z"
       style="opacity:1;fill:#10181f;fill-opacity:1;stroke:none;stroke-width:0.1;stroke-linejoin:round;stroke-miterlimit:4;stroke-dasharray:none;stroke-opacity:1" />
    <path
       inkscape:export-filename="C:\Users\Tim\Desktop\furbabies\images\final icons\puppy.png"
       inkscape:export-ydpi="91.599998"
       inkscape:export-xdpi="91.599998"
       inkscape:connector-curvature="0"
       id="path2494"
       d="m 167.0923,174.40907 c -2.41033,-1.22361 -2.81266,-4.39688 -0.816,-6.436 0.86752,-0.88598 1.58968,-1.18922 2.83589,-1.19085 2.5375,-0.003 4.17809,2.81101 3.10205,5.32132 -0.39937,0.93169 -1.59248,2.13073 -2.25131,2.2625 -0.26476,0.053 -0.52249,0.16278 -0.57273,0.24407 -0.15797,0.2556 -1.65665,0.12449 -2.2979,-0.20104 z"
       style="opacity:1;fill:#10181f;fill-opacity:1;stroke:none;stroke-width:0.1;stroke-linejoin:round;stroke-miterlimit:4;stroke-dasharray:none;stroke-opacity:1" />
    <path
       inkscape:export-filename="C:\Users\Tim\Desktop\furbabies\images\final icons\puppy.png"
       inkscape:export-ydpi="91.599998"
       inkscape:export-xdpi="91.599998"
       inkscape:connector-curvature="0"
       id="path2496"
       d="m 182.93855,174.81774 c -0.21002,-0.0459 -0.38186,-0.1545 -0.38186,-0.24136 0,-0.0868 -0.0987,-0.15791 -0.21923,-0.15791 -0.32471,0 -1.55186,-1.34935 -1.87548,-2.06223 -0.59004,-1.29974 -0.24871,-3.40126 0.70779,-4.35776 1.42335,-1.42335 3.72829,-1.40614 5.17306,0.0386 1.08128,1.08128 1.55077,2.81359 1.15695,4.26893 -0.2004,0.74055 -1.26073,2.11243 -1.63272,2.11243 -0.12496,0 -0.25515,0.0838 -0.2893,0.1863 -0.0659,0.19777 -1.99601,0.35352 -2.63921,0.21297 z"
       style="opacity:1;fill:#10181f;fill-opacity:1;stroke:none;stroke-width:0.1;stroke-linejoin:round;stroke-miterlimit:4;stroke-dasharray:none;stroke-opacity:1" />
    <path
       style="fill:none;stroke:#10181f;stroke-width:2.2;stroke-linecap:butt;stroke-linejoin:miter;stroke-opacity:1;stroke-miterlimit:4;stroke-dasharray:none"
       d="m 235.36324,-72.773411 h 8.44926"
       id="path3334"
       inkscape:connector-curvature="0"
       inkscape:export-xdpi="517.78381"
       inkscape:export-ydpi="517.78381" />
    <path
       style="opacity:1;fill:#10181f;fill-opacity:1;stroke:#10181f;stroke-width:0.669;stroke-linecap:round;stroke-linejoin:round;stroke-miterlimit:4;stroke-dasharray:none;stroke-opacity:1;paint-order:markers fill stroke"
       d="m 236.49003,-74.028935 c -0.009,-0.07305 -0.0305,-0.842969 -0.0483,-1.710937 -0.028,-1.361813 -0.0259,-1.635951 0.0154,-2 0.0263,-0.232032 0.0687,-0.495621 0.0941,-0.585754 0.0837,-0.296589 -0.15211,-0.273621 2.80884,-0.273621 2.72909,0 2.85108,0.0058 2.92202,0.138333 0.0151,0.02826 0.0572,0.247755 0.0934,0.487772 0.0362,0.240017 0.0792,0.492645 0.0955,0.561395 0.0167,0.07042 0.0299,0.86531 0.0303,1.820312 l 7.5e-4,1.695313 h -2.99809 -2.99808 z"
       id="path3336"
       inkscape:connector-curvature="0"
       inkscape:export-xdpi="517.78381"
       inkscape:export-ydpi="517.78381" />
    <path
       style="opacity:1;fill:#10181f;fill-opacity:1;stroke:#10181f;stroke-width:1.067;stroke-linecap:round;stroke-linejoin:round;stroke-miterlimit:4;stroke-dasharray:none;stroke-opacity:1;paint-order:markers fill stroke"
       d="m 188.74879,-1.4368793 c -2.83204,-0.4743945 -6.04281,-2.8094325 -7.47082,-5.4331512 -2.41243,-4.4324265 -1.64984,-9.7590895 1.90626,-13.3151915 4.11272,-4.112716 10.41225,-4.149431 14.67284,-0.08552 4.43824,4.233368 4.60584,11.1339795 0.37807,15.5663567 -1.67709,1.758253 -3.30841,2.6857403 -5.56483,3.1638758 -1.86725,0.3956705 -2.13573,0.402765 -3.92152,0.1036252 z"
       id="path3338"
       inkscape:connector-curvature="0"
       inkscape:export-xdpi="517.78381"
       inkscape:export-ydpi="517.78381" />
    <path
       style="opacity:1;fill:#10181f;fill-opacity:1;stroke:#10181f;stroke-width:1.167;stroke-linecap:round;stroke-linejoin:round;stroke-miterlimit:4;stroke-dasharray:none;stroke-opacity:1;paint-order:markers fill stroke"
       d="m 267.43242,-3.3923123 c -4.93236,-1.8281882 -8.02187,-7.0970047 -7.14912,-12.1920457 1.02152,-5.963594 6.63195,-10.149743 12.2225,-9.119645 7.35171,1.354607 11.24362,9.368367 7.81432,16.0903487 -0.86323,1.6920738 -3.04842,3.7871998 -4.91744,4.7147555 -1.50835,0.748564 -1.92952,0.840222 -4.17747,0.9091283 -1.98557,0.060864 -2.76602,-0.021968 -3.79279,-0.4025418 z"
       id="path3340"
       inkscape:connector-curvature="0"
       inkscape:export-xdpi="517.78381"
       inkscape:export-ydpi="517.78381" />
    <path
       style="opacity:1;fill:#10181f;fill-opacity:1;stroke:#10181f;stroke-width:0.6;stroke-linecap:round;stroke-linejoin:round;stroke-miterlimit:4;stroke-dasharray:none;stroke-opacity:1;paint-order:markers fill stroke"
       d="m 64.964511,-22.624326 v -16.101197 h 11.755651 11.75565 v 16.042485 16.0424846 l -5.723146,7.08e-5 c -3.14773,3.97e-5 -8.437772,0.02646 -11.75565,0.058712 l -6.032505,0.058641 z"
       id="path3342"
       inkscape:connector-curvature="0"
       inkscape:export-xdpi="517.78381"
       inkscape:export-ydpi="517.78381" />
  </g>
  <path
     style="opacity:1;fill:#de2319;fill-opacity:1;stroke:#de2319;stroke-width:0.86756504;stroke-linecap:butt;stroke-linejoin:round;stroke-miterlimit:4;stroke-dasharray:none;stroke-opacity:1;paint-order:markers fill stroke"
     d="m 305.05711,207.12152 c -10.89924,-1.97163 -19.62165,-6.52613 -27.4057,-14.31018 -13.94575,-13.94575 -18.57885,-33.70123 -12.32249,-52.54294 5.15548,-15.52626 17.93313,-27.97212 33.64003,-32.76652 19.53999,-5.96441 41.67679,0.86251 54.61671,16.84362 4.32222,5.33805 8.50918,13.74388 10.13346,20.34419 1.78795,7.26534 1.68789,17.35229 -0.24472,24.66941 -6.85729,25.96278 -32.39348,42.47002 -58.41729,37.76242 z m 12.02251,-35.48956 0.14916,-11.74406 h 3.79851 c 4.36754,0 4.2228,0.1657 4.77814,-5.4701 l 0.38677,-3.92516 h -4.4927 -4.49271 v -4.23961 c 0,-5.64763 0.54979,-6.26097 5.61228,-6.26097 h 3.78298 v -4.0805 c 0,-4.71359 -0.0344,-4.7415 -5.85865,-4.75453 -5.73099,-0.0128 -9.78571,2.07139 -11.83163,6.08173 -0.88227,1.72937 -1.10023,3.25584 -1.10023,7.70525 v 5.54863 h -4.14496 -4.14497 v 4.67342 4.67341 l 4.0068,0.16238 4.0068,0.16238 0.14922,11.76623 0.14923,11.76624 4.5484,-0.16034 4.5484,-0.16034 z"
     id="path6780"
     inkscape:connector-curvature="0"
     inkscape:export-xdpi="91.599998"
     inkscape:export-ydpi="91.599998" />
  <g
     id="g6819"
     transform="translate(-143.45615,96.449889)"
     inkscape:export-xdpi="91.599998"
     inkscape:export-ydpi="91.599998">
    <path
       inkscape:connector-curvature="0"
       id="path6810"
       d="m 443.46641,242.21823 c -7.19897,-1.09188 -12.48699,-2.7301 -17.91124,-5.54889 -8.98221,-4.66773 -17.03603,-12.81496 -21.67451,-21.92589 -2.3703,-4.65577 -3.45613,-7.63003 -4.51923,-12.37889 -0.69652,-3.11137 -0.81135,-4.56947 -0.80669,-10.24346 0.006,-7.28762 0.42981,-10.24889 2.27505,-15.89552 2.56558,-7.85098 6.45548,-14.129 12.49397,-20.16434 7.38761,-7.38377 15.43415,-11.78414 25.55051,-13.97269 4.72171,-1.02147 14.13012,-1.10003 18.85548,-0.15742 9.15568,1.82636 17.24072,5.69719 24.28081,11.62482 5.02585,4.23167 8.91343,9.37515 12.26519,16.22753 3.86571,7.90307 5.07716,13.06033 5.07382,21.59979 -0.002,6.24219 -0.60934,10.68196 -2.10396,15.3912 -5.58133,17.58559 -19.87639,30.58524 -38.11045,34.65688 -3.0585,0.68296 -13.04672,1.18456 -15.66875,0.78688 z m 20.20215,-24.53557 c 5.84739,-1.08095 10.18351,-5.41218 11.39109,-11.37825 0.59941,-2.96145 0.55045,-25.76507 -0.0607,-28.28519 -1.01496,-4.18502 -3.82196,-7.95799 -7.1216,-9.57235 -3.41886,-1.6727 -5.6608,-1.90597 -18.3175,-1.90597 -12.68982,0 -14.7832,0.21913 -18.08702,1.8933 -2.44962,1.24131 -4.77381,3.72615 -6.03419,6.45127 -0.9671,2.09101 -1.06819,2.68728 -1.32824,7.83438 -0.36193,7.16383 -0.35953,16.39797 0.005,21.13 0.33415,4.33194 1.3885,7.01946 3.83131,9.76595 1.63503,1.83828 4.74378,3.50826 7.51432,4.03659 2.48133,0.47318 25.67653,0.49807 28.20709,0.0303 z"
       style="opacity:1;fill:#de2319;fill-opacity:1;stroke:none;stroke-width:0.53830874;stroke-linecap:butt;stroke-linejoin:round;stroke-miterlimit:4;stroke-dasharray:none;stroke-opacity:1;paint-order:markers fill stroke" />
    <path
       inkscape:connector-curvature="0"
       id="path6812"
       d="m 439.16228,213.50741 c -5.82465,-0.44677 -8.75267,-2.36219 -10.07086,-6.58804 -0.51849,-1.66216 -0.59738,-3.5935 -0.59738,-14.62417 0,-11.55705 0.0596,-12.88021 0.65713,-14.59674 0.83366,-2.39476 2.85011,-4.59134 5.18312,-5.64615 1.78177,-0.80558 2.07156,-0.82523 13.78585,-0.93462 7.91333,-0.0739 12.76912,0.0238 14.33774,0.28835 2.68764,0.45333 4.9936,1.73612 6.34528,3.52986 1.70537,2.26311 1.96583,3.81546 2.19536,13.08429 0.25596,10.33632 -0.17513,17.78816 -1.15661,19.99327 -0.84719,1.90338 -3.42344,4.29918 -5.18623,4.82297 -2.94364,0.87465 -17.75554,1.2645 -25.4934,0.67098 z m 14.88999,-8.7205 c 2.8163,-0.95108 6.18887,-3.99815 7.59582,-6.86273 0.8731,-1.77765 0.96902,-2.33482 0.96902,-5.62898 0,-3.35794 -0.0838,-3.8215 -1.0273,-5.68524 -1.33344,-2.63392 -4.41147,-5.49308 -7.05619,-6.55444 -1.55014,-0.6221 -2.69599,-0.80938 -4.97381,-0.81296 -2.58953,-0.004 -3.24281,0.12954 -5.22392,1.06841 -5.53766,2.62439 -8.31523,7.71984 -7.605,13.95134 0.9147,8.02544 9.41959,13.19308 17.32138,10.5246 z m 11.33135,-24.06918 c 1.3631,-1.19952 1.49836,-2.68352 0.36713,-4.02791 -1.79862,-2.13754 -5.04871,-1.03113 -5.04871,1.7187 0,2.68533 2.72612,4.03 4.68158,2.30921 z"
       style="opacity:1;fill:#de2319;fill-opacity:1;stroke:#de2319;stroke-width:0.53830874;stroke-linecap:butt;stroke-linejoin:round;stroke-miterlimit:4;stroke-dasharray:none;stroke-opacity:1;paint-order:markers fill stroke" />
    <path
       inkscape:connector-curvature="0"
       id="path6814"
       d="m 446.51045,200.47983 c -2.98371,-1.29674 -4.73677,-3.4352 -5.31482,-6.48324 -0.78445,-4.13644 1.32053,-7.99467 5.29444,-9.7042 4.20002,-1.8068 9.48296,0.42264 11.30508,4.77083 0.67875,1.61974 0.58268,5.21246 -0.18455,6.9015 -0.7947,1.74951 -3.54571,4.21531 -5.22252,4.68108 -1.77605,0.49334 -4.54022,0.41528 -5.87763,-0.16597 z"
       style="opacity:1;fill:#de2319;fill-opacity:1;stroke:#de2319;stroke-width:0.53830874;stroke-linecap:butt;stroke-linejoin:round;stroke-miterlimit:4;stroke-dasharray:none;stroke-opacity:1;paint-order:markers fill stroke" />
  </g>
  <path
     style="opacity:0.92000002;fill:#000000;fill-opacity:0.1058201;stroke:none;stroke-width:0.51953048;stroke-linecap:square;stroke-linejoin:miter;stroke-miterlimit:4;stroke-dasharray:none;stroke-opacity:1;paint-order:markers fill stroke"
     d="m 53.972643,408.8403 c -3.02781,-1.38024 -5.36312,-3.5358 -7.6294,-7.04218 -5.27069,-8.15479 -5.32082,-18.10383 -0.12554,-24.91519 2.09912,-2.75209 6.90736,-5.71123 10.95124,-6.73974 7.11908,-1.81064 8.74324,-2.93126 11.14544,-7.68998 1.83363,-3.63241 5.86862,-8.10047 8.93492,-9.8939 6.65686,-3.89349 16.31521,-3.88319 22.996147,0.0245 2.85941,1.67249 7.49551,6.71652 8.96679,9.75578 2.3447,4.84349 4.01849,6.02253 11.09231,7.81357 6.42175,1.62594 12.22337,6.68822 13.83246,12.0697 2.96748,9.92454 -1.86607,22.49363 -10.13804,26.36277 -3.41235,1.59611 -5.97585,1.53796 -12.07651,-0.2739 -15.091057,-4.48199 -30.477177,-4.48339 -46.019407,-0.004 -5.99002,1.72629 -9.01571,1.8614 -11.93041,0.53272 z"
     id="path2015"
     inkscape:connector-curvature="0"
     inkscape:export-xdpi="357.66766"
     inkscape:export-ydpi="357.66766" />
  <path
     style="opacity:0.92000002;fill:#000000;fill-opacity:0.1058201;stroke:none;stroke-width:0.51953048;stroke-linecap:square;stroke-linejoin:miter;stroke-miterlimit:4;stroke-dasharray:none;stroke-opacity:1;paint-order:markers fill stroke"
     d="m 46.796433,362.84074 c -7.55991,-2.77287 -13.31298,-11.9481 -13.31298,-21.23209 0,-8.67116 4.30959,-13.86023 11.51111,-13.86023 9.11089,0 18.02576,10.8292 18.04941,21.92525 0.0219,10.25121 -7.52429,16.36664 -16.24754,13.16707 z"
     id="path2017"
     inkscape:connector-curvature="0"
     inkscape:export-xdpi="357.66766"
     inkscape:export-ydpi="357.66766" />
  <path
     style="opacity:0.92000002;fill:#000000;fill-opacity:0.1058201;stroke:none;stroke-width:0.51953048;stroke-linecap:square;stroke-linejoin:miter;stroke-miterlimit:4;stroke-dasharray:none;stroke-opacity:1;paint-order:markers fill stroke"
     d="m 71.985253,336.09069 c -6.65962,-3.29645 -12.18608,-14.95865 -12.26148,-25.87479 -0.0772,-11.174 4.2686,-18.59732 11.17997,-19.09724 2.49552,-0.18051 3.35684,0.0127 5.67379,1.27247 4.58606,2.49362 8.25062,7.96036 10.45018,15.58947 1.6598,5.75694 1.64151,15.67781 -0.0368,19.94668 -1.45328,3.69658 -3.7788,6.92714 -5.93121,8.23953 -2.26108,1.37864 -6.20231,1.34558 -9.07449,-0.0761 z"
     id="path2019"
     inkscape:connector-curvature="0"
     inkscape:export-xdpi="357.66766"
     inkscape:export-ydpi="357.66766" />
  <path
     style="opacity:0.92000002;fill:#000000;fill-opacity:0.1058201;stroke:none;stroke-width:0.51953048;stroke-linecap:square;stroke-linejoin:miter;stroke-miterlimit:4;stroke-dasharray:none;stroke-opacity:1;paint-order:markers fill stroke"
     d="m 101.44896,336.28045 c -0.99081,-0.49881 -2.564387,-1.91449 -3.496847,-3.14593 -2.58783,-3.41762 -3.5266,-7.15098 -3.48044,-13.84113 0.0342,-4.95442 0.2503,-6.324 1.641,-10.39969 2.10902,-6.18085 4.646157,-10.40491 8.201057,-13.65388 5.4628,-4.9927 10.80729,-5.29716 15.07565,-0.8588 2.85844,2.97228 3.8875,6.08904 4.21007,12.75126 0.2168,4.47755 0.0652,6.27327 -0.83219,9.85555 -3.53809,14.12416 -13.56336,23.19682 -21.3183,19.29262 z"
     id="path2021"
     inkscape:connector-curvature="0"
     inkscape:export-xdpi="357.66766"
     inkscape:export-ydpi="357.66766" />
  <path
     style="opacity:0.92000002;fill:#000000;fill-opacity:0.1058201;stroke:none;stroke-width:0.51953048;stroke-linecap:square;stroke-linejoin:miter;stroke-miterlimit:4;stroke-dasharray:none;stroke-opacity:1;paint-order:markers fill stroke"
     d="m 126.11814,364.58029 c -2.94792,-0.81534 -6.2668,-4.34159 -7.27195,-7.72631 -2.89855,-9.76048 2.28636,-21.91314 11.26301,-26.39883 5.44594,-2.72137 10.58934,-1.9121 14.23467,2.2397 2.62127,2.98547 3.41293,5.82322 3.17056,11.36499 -0.18623,4.25789 -0.43975,5.31697 -2.11952,8.85407 -4.13408,8.7052 -12.24191,13.6121 -19.27677,11.66638 z"
     id="path2023"
     inkscape:connector-curvature="0"
     inkscape:export-xdpi="357.66766"
     inkscape:export-ydpi="357.66766" />
  <g
     id="g2638">
    <ellipse
       inkscape:export-ydpi="91.599998"
       inkscape:export-xdpi="91.599998"
       ry="28.257643"
       rx="27.997221"
       cy="53.924488"
       cx="355.22418"
       id="path2591"
       style="opacity:0.9;fill:none;fill-opacity:0.6719577;stroke:#de2319;stroke-width:6.77913284;stroke-linecap:square;stroke-linejoin:miter;stroke-miterlimit:4;stroke-dasharray:none;stroke-opacity:1;paint-order:markers fill stroke" />
    <path
       inkscape:export-ydpi="91.599998"
       inkscape:export-xdpi="91.599998"
       inkscape:connector-curvature="0"
       id="path2593"
       d="m 355.04684,37.973185 v 30.75251"
       style="fill:none;stroke:#de2319;stroke-width:6.77913284;stroke-linecap:round;stroke-linejoin:miter;stroke-miterlimit:4;stroke-dasharray:none;stroke-opacity:1" />
    <path
       inkscape:export-ydpi="91.599998"
       inkscape:export-xdpi="91.599998"
       style="fill:none;stroke:#de2319;stroke-width:6.77913284;stroke-linecap:round;stroke-linejoin:miter;stroke-miterlimit:4;stroke-dasharray:none;stroke-opacity:1"
       d="M 370.79139,53.533585 H 340.03888"
       id="path2595"
       inkscape:connector-curvature="0" />
  </g>
  <g
     id="g2664"
     inkscape:export-xdpi="517.78381"
     inkscape:export-ydpi="517.78381">
    <path
       inkscape:connector-curvature="0"
       id="path2640"
       d="m 40.294578,-44.079177 v 38.7741 l 72.191262,-0.25509 0.009,-38.15043 7.23766,5.83974 v -13.797331 l -43.979802,-32.97074 -43.11068,33.417152 v 13.009729 z"
       style="fill:none;stroke:#10181f;stroke-width:2.275;stroke-linecap:round;stroke-linejoin:round;stroke-miterlimit:4;stroke-dasharray:none;stroke-opacity:1"
       inkscape:export-xdpi="517.78381"
       inkscape:export-ydpi="517.78381" />
    <path
       inkscape:connector-curvature="0"
       id="path2642"
       d="m 40.294578,-44.079177 35.4579,-28.060205 36.742142,28.428785"
       style="fill:none;stroke:#10181f;stroke-width:2.275;stroke-linecap:round;stroke-linejoin:round;stroke-miterlimit:4;stroke-dasharray:none;stroke-opacity:1"
       inkscape:export-xdpi="517.78381"
       inkscape:export-ydpi="517.78381" />
    <path
       inkscape:connector-curvature="0"
       id="path2644"
       d="M 97.307818,-68.568084 V -81.45027 h 11.606722 v 21.698829"
       style="fill:none;stroke:#10181f;stroke-width:2.275;stroke-linecap:round;stroke-linejoin:round;stroke-miterlimit:4;stroke-dasharray:none;stroke-opacity:1"
       inkscape:export-xdpi="517.78381"
       inkscape:export-ydpi="517.78381" />
    <path
       inkscape:connector-curvature="0"
       id="path2646"
       d="m 89.655038,-5.305077 v -34.56507 h -25.89192 v 34.56507"
       style="fill:none;stroke:#10181f;stroke-width:2.275;stroke-linecap:round;stroke-linejoin:round;stroke-miterlimit:4;stroke-dasharray:none;stroke-opacity:1"
       inkscape:export-xdpi="517.78381"
       inkscape:export-ydpi="517.78381" />
    <path
       inkscape:connector-curvature="0"
       id="path2648"
       d="m 115.82499,-42.553168 c -2.42552,-1.971947 -38.378528,-29.839661 -39.330722,-30.485838 -0.581504,-0.394619 -0.890119,-0.395216 -1.468321,-0.0028 -0.252266,0.171192 -8.389566,6.586517 -18.08289,14.256279 -16.367458,12.950613 -22.881108,18.055382 -23.038545,18.055382 -0.03513,0 -0.06331,-2.229746 -0.06263,-4.95499 l 0.0012,-4.954991 20.883728,-16.188355 c 11.486051,-8.903595 20.930009,-16.206572 20.986574,-16.228839 0.05657,-0.02227 9.715041,7.164418 21.463278,15.970409 l 21.360438,16.010893 v 5.296042 c 0,2.912823 -0.0416,5.29281 -0.0923,5.28886 -0.0508,-0.004 -1.2297,-0.931857 -2.61981,-2.062015 z"
       style="opacity:0.92000002;fill:#10181f;fill-opacity:1;stroke:#10181f;stroke-width:0.2800647;stroke-linecap:round;stroke-linejoin:round;stroke-miterlimit:4;stroke-dasharray:none;stroke-opacity:1;paint-order:markers fill stroke"
       inkscape:export-xdpi="517.78381"
       inkscape:export-ydpi="517.78381" />
    <path
       inkscape:connector-curvature="0"
       id="path2650"
       d="m 117.90388,-40.768072 c -1.31731,-1.154007 -5.51193,-4.467175 -12.10816,-9.563764 -4.06247,-3.138881 -7.801798,-6.029785 -8.309608,-6.424232 -0.877736,-0.681792 -2.946576,-2.270262 -3.819107,-2.932339 -0.223076,-0.16927 -0.723808,-0.557052 -1.112738,-0.861737 -0.388931,-0.304686 -1.355771,-1.052551 -2.148534,-1.661923 -0.792762,-0.609371 -1.900057,-1.468031 -2.460653,-1.908133 -0.560596,-0.440101 -1.41903,-1.10487 -1.907632,-1.477264 -0.987134,-0.752355 -2.283447,-1.76121 -2.619405,-2.038552 -0.120295,-0.09931 -0.427468,-0.332177 -0.68261,-0.517489 -0.435401,-0.316241 -2.344543,-1.804123 -3.761518,-2.931525 -2.806082,-2.232632 -3.190009,-2.423225 -3.896362,-1.934266 -0.295325,0.204433 -3.698137,2.887792 -8.613991,6.792744 -1.320305,1.048796 -3.203817,2.544313 -4.185582,3.323371 -0.981765,0.779057 -2.837578,2.254936 -4.124029,3.279731 -8.520404,6.787402 -18.336735,14.540705 -20.373937,16.092091 -1.320305,1.005448 -2.687355,2.052091 -3.037889,2.325872 -0.629603,0.491746 -0.83993,0.582509 -0.83993,0.362458 0,-0.06206 -0.04155,-0.154394 -0.09233,-0.205175 -0.05078,-0.05078 -0.09233,-2.215469 -0.09233,-4.810418 v -4.718089 l 0.33854,-0.300828 c 0.186197,-0.165454 0.859326,-0.69482 1.495842,-1.176367 0.636516,-0.481547 2.381534,-1.826551 3.877818,-2.988899 1.496285,-1.162348 3.863824,-3.001649 5.261198,-4.087336 1.397375,-1.085687 3.68652,-2.860336 5.08699,-3.943663 1.40047,-1.083327 3.33172,-2.58038 4.291667,-3.326783 0.959946,-0.746404 2.243934,-1.741132 2.853305,-2.210508 1.401828,-1.079776 5.550264,-4.308029 6.524584,-5.077339 0.917803,-0.724685 9.137766,-7.124635 10.899061,-8.48586 l 1.296843,-1.00227 0.518961,0.35386 c 0.285429,0.194623 0.520645,0.31365 0.522705,0.264504 0.0021,-0.04915 0.06021,0.0076 0.129222,0.126078 0.06901,0.118489 0.199895,0.215435 0.290849,0.215435 0.09095,0 0.198604,0.08661 0.239224,0.19246 0.04062,0.105854 0.126863,0.1597 0.191652,0.119658 0.06479,-0.04004 0.177924,0.03954 0.251412,0.176855 0.07349,0.137312 0.191019,0.249659 0.26118,0.249659 0.07016,0 0.199919,0.06925 0.288349,0.153882 0.08843,0.08464 0.285481,0.236977 0.437893,0.338539 0.152413,0.101562 4.133964,3.084952 8.847893,6.629756 4.71393,3.544804 13.598097,10.215503 19.742597,14.823774 l 11.17181,8.378678 0.0308,3.888239 c 0.0395,4.994772 0.0114,6.665371 -0.1142,6.789817 -0.0557,0.05515 -0.30309,-0.07657 -0.54982,-0.292702 z"
       style="opacity:1;fill:#10181f;fill-opacity:1;stroke:#10181f;stroke-width:0.2800647;stroke-linecap:round;stroke-linejoin:round;stroke-miterlimit:4;stroke-dasharray:none;stroke-opacity:1;paint-order:markers fill stroke"
       inkscape:export-xdpi="517.78381"
       inkscape:export-ydpi="517.78381" />
    <path
       style="opacity:0.92000002;fill:#10181f;fill-opacity:1;stroke:#10181f;stroke-width:1.58428514;stroke-linecap:round;stroke-linejoin:round;stroke-miterlimit:4;stroke-dasharray:none;stroke-opacity:1;paint-order:markers fill stroke"
       d="m 102.86366,-65.973736 -4.323232,-3.264421 -0.0292,-5.397015 -0.0292,-5.397015 h 4.526532 4.52653 v 8.704863 c 0,4.787675 -0.0784,8.685321 -0.1741,8.661436 -0.0957,-0.02389 -2.11955,-1.512417 -4.49733,-3.307848 z"
       id="path2666"
       inkscape:connector-curvature="0"
       inkscape:export-xdpi="517.78381"
       inkscape:export-ydpi="517.78381" />
    <path
       style="opacity:1;fill:#10181f;fill-opacity:1;stroke:#10181f;stroke-width:1.58428514;stroke-linecap:round;stroke-linejoin:round;stroke-miterlimit:4;stroke-dasharray:none;stroke-opacity:1;paint-order:markers fill stroke"
       d="m 102.13807,-66.231013 -3.656039,-2.831317 v -5.484928 -5.484929 h 4.483089 4.48308 l 0.21754,7.67443 c 0.11965,4.220936 0.11308,7.981436 -0.0146,8.356668 -0.4127,1.212946 -1.78311,0.658645 -5.51308,-2.229924 z"
       id="path2668"
       inkscape:connector-curvature="0"
       inkscape:export-xdpi="517.78381"
       inkscape:export-ydpi="517.78381" />
    <path
       style="opacity:0.92000002;fill:#10181f;fill-opacity:1;stroke:#10181f;stroke-width:0.14003235;stroke-linecap:round;stroke-linejoin:round;stroke-miterlimit:4;stroke-dasharray:none;stroke-opacity:1;paint-order:markers fill stroke"
       d="m 107.39812,-62.326663 c -0.32259,-0.24214 -0.36304,-0.329661 -0.15388,-0.332955 0.0762,-0.0012 0.20774,-0.04177 0.29237,-0.09015 0.0846,-0.04838 0.17466,-0.08895 0.20005,-0.09015 0.0254,-0.0012 0.0462,0.164011 0.0462,0.367135 0,0.203123 -0.0208,0.368475 -0.0462,0.367447 -0.0254,-10e-4 -0.17774,-0.100628 -0.33854,-0.221332 z"
       id="path2670"
       inkscape:connector-curvature="0"
       inkscape:export-xdpi="517.78381"
       inkscape:export-ydpi="517.78381" />
    <path
       style="opacity:0.92000002;fill:#10181f;fill-opacity:1;stroke:#10181f;stroke-width:0.00888672;stroke-linecap:round;stroke-linejoin:round;stroke-miterlimit:4;stroke-dasharray:none;stroke-opacity:1;paint-order:markers fill stroke"
       d="m 118.54155,-40.295746 -0.0479,-0.03854 0.0205,-0.01159 c 0.025,-0.01412 0.0503,-0.03813 0.0657,-0.0624 l 0.0115,-0.01814 v 0.08475 c 0,0.04661 -4.4e-4,0.08468 -9.8e-4,0.0846 -5.4e-4,-8e-5 -0.0225,-0.01749 -0.0488,-0.03869 z"
       id="path2672"
       inkscape:connector-curvature="0"
       inkscape:export-xdpi="517.78381"
       inkscape:export-ydpi="517.78381" />
    <path
       style="opacity:0.92000002;fill:#10181f;fill-opacity:1;stroke:#10181f;stroke-width:0.00888672;stroke-linecap:round;stroke-linejoin:round;stroke-miterlimit:4;stroke-dasharray:none;stroke-opacity:1;paint-order:markers fill stroke"
       d="m 118.56206,-40.274712 c -0.0107,-0.0096 -0.0375,-0.03187 -0.0595,-0.04947 -0.022,-0.0176 -0.0387,-0.03322 -0.0371,-0.0347 0.002,-0.0015 0.016,-0.0064 0.032,-0.01082 0.0232,-0.0065 0.0325,-0.01148 0.0462,-0.02481 0.0209,-0.02029 0.0385,-0.05372 0.0454,-0.08623 0.005,-0.02233 0.005,-0.01571 0.006,0.08516 3.9e-4,0.10695 -0.001,0.135001 -0.009,0.137243 -0.002,6.1e-4 -0.0126,-0.0068 -0.0233,-0.01637 z m -0.003,-0.108402 c 0.002,-0.0025 -0.005,0.0022 -0.0156,0.01052 -0.0101,0.0083 -0.0184,0.01587 -0.0184,0.01687 0,0.0027 0.0307,-0.02208 0.0339,-0.02739 z m 0.0134,-0.01736 c 0.005,-0.0062 0.005,-0.0063 -0.001,-0.0015 -0.004,0.0029 -0.007,0.006 -0.007,0.0068 0,0.0032 0.003,0.0011 0.008,-0.0054 z"
       id="path2674"
       inkscape:connector-curvature="0"
       inkscape:export-xdpi="517.78381"
       inkscape:export-ydpi="517.78381" />
  </g>
  <ellipse
     style="opacity:1;fill:none;fill-opacity:1;stroke:#10181f;stroke-width:2.275;stroke-linecap:round;stroke-linejoin:round;stroke-miterlimit:4;stroke-dasharray:none;stroke-opacity:0.99215686;paint-order:markers fill stroke"
     id="path3244"
     cx="190.57996"
     cy="-12.29772"
     rx="11.997705"
     ry="12.290331"
     inkscape:export-xdpi="517.78381"
     inkscape:export-ydpi="517.78381" />
  <ellipse
     ry="12.290331"
     rx="11.997705"
     cy="-13.843069"
     cx="270.86487"
     id="ellipse3246"
     style="opacity:1;fill:none;fill-opacity:1;stroke:#10181f;stroke-width:2.275;stroke-linecap:round;stroke-linejoin:round;stroke-miterlimit:4;stroke-dasharray:none;stroke-opacity:0.99215686;paint-order:markers fill stroke"
     inkscape:export-xdpi="517.78381"
     inkscape:export-ydpi="517.78381" />
  <path
     sodipodi:nodetypes="cccccccccccccccccccccsccc"
     inkscape:connector-curvature="0"
     id="path3256"
     d="m 254.16424,-15.690261 c 0.9684,-6.61121 4.2522,-10.84797 8.3793,-13.05202 9.5545,-5.10244 23.6292,0.68907 23.9617,13.1343 l 13.7513,-0.11237 c 3.2396,-0.61509 5.8266,-2.86178 7.4693,-7.46935 v -18.43497 c -0.2371,-6.18328 -3.638,-7.37101 -7.6283,-7.62826 h -27.8643 l -24.0248,-23.54697 h -4.5547 v -4.63523 c -0.3102,-0.90986 0.1364,-2.15604 -1.8276,-2.33086 h -4.6617 c -1.867,-0.009 -1.7691,1.29278 -1.9071,2.43681 l 0.1059,4.55577 -35.7045,-0.2119 c -1.6956,0.38749 -3.3434,0.87078 -4.4498,2.43681 l -15.2565,20.9115 h -14.793 c -4.7169,0.66658 -8.3111,2.47186 -8.1183,8.11828 v 18.14361 c -0.021,2.8224 1.0386,7.65476 7.6547,7.65476 h 9.9062 c 1.0667,-6.88404 6.0406,-14.82863 16.4824,-14.91577 5.482,0.052 14.1262,3.56322 15.7325,14.94586"
     style="fill:none;stroke:#10181f;stroke-width:2.275;stroke-linecap:round;stroke-linejoin:round;stroke-miterlimit:4;stroke-dasharray:none;stroke-opacity:1"
     inkscape:export-xdpi="517.78381"
     inkscape:export-ydpi="517.78381" />
  <path
     style="fill:none;stroke:#10181f;stroke-width:2.275;stroke-linecap:round;stroke-linejoin:round;stroke-miterlimit:4;stroke-dasharray:none;stroke-opacity:0.99215686"
     d="m 206.81694,-15.690261 h 47.3473"
     id="path3258"
     inkscape:connector-curvature="0"
     inkscape:export-xdpi="517.78381"
     inkscape:export-ydpi="517.78381" />
  <path
     style="fill:none;stroke:#10181f;stroke-width:2.275;stroke-linecap:round;stroke-linejoin:round;stroke-miterlimit:4;stroke-dasharray:none;stroke-opacity:0.99215686"
     d="m 199.76474,-67.899801 -13.0316,17.26954 c 0.02,0.7388 -0.4225,1.72047 0.8475,1.80112 h 36.4462 c 0.689,-0.0118 1.387,0.0145 1.8011,-1.16543 v -16.42196 c -0.3964,-0.77944 -0.9845,-1.0474 -1.5892,-1.27138 z"
     id="path3260"
     inkscape:connector-curvature="0"
     sodipodi:nodetypes="cccccccc"
     inkscape:export-xdpi="517.78381"
     inkscape:export-ydpi="517.78381" />
  <path
     inkscape:connector-curvature="0"
     id="path3262"
     d="m 247.43674,-67.793851 14.7306,17.00467 c 10e-5,0.86701 -0.1444,1.65139 -1.1214,1.96004 h -27.7155 c -1.169,-0.008 -1.2254,-0.61039 -1.3696,-1.16543 v -16.42196 c 0.048,-0.91223 0.6053,-1.12309 1.2085,-1.27138 z"
     style="fill:none;stroke:#10181f;stroke-width:2.275;stroke-linecap:round;stroke-linejoin:round;stroke-miterlimit:4;stroke-dasharray:none;stroke-opacity:0.99215686"
     sodipodi:nodetypes="cccccccc"
     inkscape:export-xdpi="517.78381"
     inkscape:export-ydpi="517.78381" />
  <rect
     style="opacity:1;fill:#10181f;fill-opacity:1;stroke:#10181f;stroke-width:2.2750001;stroke-linecap:round;stroke-linejoin:round;stroke-miterlimit:4;stroke-dasharray:none;stroke-opacity:0.99215686;paint-order:markers fill stroke"
     id="rect3264"
     width="3.5355339"
     height="3.8890872"
     x="160.42485"
     y="-40.679256"
     inkscape:export-xdpi="517.78381"
     inkscape:export-ydpi="517.78381" />
  <rect
     y="-46.4245"
     x="165.99332"
     height="3.8890872"
     width="3.5355339"
     id="rect3266"
     style="opacity:1;fill:#10181f;fill-opacity:1;stroke:#10181f;stroke-width:2.2750001;stroke-linecap:round;stroke-linejoin:round;stroke-miterlimit:4;stroke-dasharray:none;stroke-opacity:0.99215686;paint-order:markers fill stroke"
     inkscape:export-xdpi="517.78381"
     inkscape:export-ydpi="517.78381" />
  <rect
     style="opacity:1;fill:#10181f;fill-opacity:1;stroke:#10181f;stroke-width:2.2750001;stroke-linecap:round;stroke-linejoin:round;stroke-miterlimit:4;stroke-dasharray:none;stroke-opacity:0.99215686;paint-order:markers fill stroke"
     id="rect3268"
     width="3.5355339"
     height="3.8890872"
     x="171.65018"
     y="-40.59087"
     inkscape:export-xdpi="517.78381"
     inkscape:export-ydpi="517.78381" />
  <rect
     style="opacity:1;fill:#10181f;fill-opacity:1;stroke:#10181f;stroke-width:2.2750001;stroke-linecap:round;stroke-linejoin:round;stroke-miterlimit:4;stroke-dasharray:none;stroke-opacity:0.99215686;paint-order:markers fill stroke"
     id="rect3270"
     width="3.5355339"
     height="3.8890872"
     x="177.57219"
     y="-46.336113"
     inkscape:export-xdpi="517.78381"
     inkscape:export-ydpi="517.78381" />
  <rect
     y="-40.237316"
     x="183.14066"
     height="3.8890872"
     width="3.5355339"
     id="rect3272"
     style="opacity:1;fill:#10181f;fill-opacity:1;stroke:#10181f;stroke-width:2.2750001;stroke-linecap:round;stroke-linejoin:round;stroke-miterlimit:4;stroke-dasharray:none;stroke-opacity:1;paint-order:markers fill stroke"
     inkscape:export-xdpi="517.78381"
     inkscape:export-ydpi="517.78381" />
  <rect
     style="opacity:1;fill:#10181f;fill-opacity:1;stroke:#10181f;stroke-width:2.2750001;stroke-linecap:round;stroke-linejoin:round;stroke-miterlimit:4;stroke-dasharray:none;stroke-opacity:1;paint-order:markers fill stroke"
     id="rect3274"
     width="3.5355339"
     height="3.8890872"
     x="188.70912"
     y="-45.982559"
     inkscape:export-xdpi="517.78381"
     inkscape:export-ydpi="517.78381" />
  <rect
     y="-40.14893"
     x="194.36598"
     height="3.8890872"
     width="3.5355339"
     id="rect3276"
     style="opacity:1;fill:#10181f;fill-opacity:1;stroke:#10181f;stroke-width:2.2750001;stroke-linecap:round;stroke-linejoin:round;stroke-miterlimit:4;stroke-dasharray:none;stroke-opacity:1;paint-order:markers fill stroke"
     inkscape:export-xdpi="517.78381"
     inkscape:export-ydpi="517.78381" />
  <rect
     y="-45.894173"
     x="200.28799"
     height="3.8890872"
     width="3.5355339"
     id="rect3278"
     style="opacity:1;fill:#10181f;fill-opacity:1;stroke:#10181f;stroke-width:2.2750001;stroke-linecap:round;stroke-linejoin:round;stroke-miterlimit:4;stroke-dasharray:none;stroke-opacity:1;paint-order:markers fill stroke"
     inkscape:export-xdpi="517.78381"
     inkscape:export-ydpi="517.78381" />
  <rect
     style="opacity:1;fill:#10181f;fill-opacity:1;stroke:#10181f;stroke-width:2.2750001;stroke-linecap:round;stroke-linejoin:round;stroke-miterlimit:4;stroke-dasharray:none;stroke-opacity:1;paint-order:markers fill stroke"
     id="rect3280"
     width="3.5355339"
     height="3.8890872"
     x="205.85646"
     y="-39.972153"
     inkscape:export-xdpi="517.78381"
     inkscape:export-ydpi="517.78381" />
  <rect
     y="-45.717396"
     x="211.42493"
     height="3.8890872"
     width="3.5355339"
     id="rect3282"
     style="opacity:1;fill:#10181f;fill-opacity:1;stroke:#10181f;stroke-width:2.2750001;stroke-linecap:round;stroke-linejoin:round;stroke-miterlimit:4;stroke-dasharray:none;stroke-opacity:1;paint-order:markers fill stroke"
     inkscape:export-xdpi="517.78381"
     inkscape:export-ydpi="517.78381" />
  <rect
     style="opacity:1;fill:#10181f;fill-opacity:1;stroke:#10181f;stroke-width:2.2750001;stroke-linecap:round;stroke-linejoin:round;stroke-miterlimit:4;stroke-dasharray:none;stroke-opacity:1;paint-order:markers fill stroke"
     id="rect3284"
     width="3.5355339"
     height="3.8890872"
     x="217.08179"
     y="-39.883766"
     inkscape:export-xdpi="517.78381"
     inkscape:export-ydpi="517.78381" />
  <rect
     style="opacity:1;fill:#10181f;fill-opacity:1;stroke:#10181f;stroke-width:2.2750001;stroke-linecap:round;stroke-linejoin:round;stroke-miterlimit:4;stroke-dasharray:none;stroke-opacity:1;paint-order:markers fill stroke"
     id="rect3286"
     width="3.5355339"
     height="3.8890872"
     x="223.0038"
     y="-45.629009"
     inkscape:export-xdpi="517.78381"
     inkscape:export-ydpi="517.78381" />
  <rect
     style="opacity:1;fill:#10181f;fill-opacity:1;stroke:#10181f;stroke-width:2.2750001;stroke-linecap:round;stroke-linejoin:round;stroke-miterlimit:4;stroke-dasharray:none;stroke-opacity:1;paint-order:markers fill stroke"
     id="rect3288"
     width="3.5355339"
     height="3.8890872"
     x="228.83743"
     y="-39.618599"
     inkscape:export-xdpi="517.78381"
     inkscape:export-ydpi="517.78381" />
  <rect
     style="opacity:1;fill:#10181f;fill-opacity:1;stroke:#10181f;stroke-width:2.2750001;stroke-linecap:round;stroke-linejoin:round;stroke-miterlimit:4;stroke-dasharray:none;stroke-opacity:1;paint-order:markers fill stroke"
     id="rect3290"
     width="3.5355339"
     height="3.8890872"
     x="234.75945"
     y="-45.363842"
     inkscape:export-xdpi="517.78381"
     inkscape:export-ydpi="517.78381" />
  <rect
     y="-39.441822"
     x="240.32791"
     height="3.8890872"
     width="3.5355339"
     id="rect3292"
     style="opacity:1;fill:#10181f;fill-opacity:1;stroke:#10181f;stroke-width:2.2750001;stroke-linecap:round;stroke-linejoin:round;stroke-miterlimit:4;stroke-dasharray:none;stroke-opacity:1;paint-order:markers fill stroke"
     inkscape:export-xdpi="517.78381"
     inkscape:export-ydpi="517.78381" />
  <rect
     style="opacity:1;fill:#10181f;fill-opacity:1;stroke:#10181f;stroke-width:2.2750001;stroke-linecap:round;stroke-linejoin:round;stroke-miterlimit:4;stroke-dasharray:none;stroke-opacity:1;paint-order:markers fill stroke"
     id="rect3294"
     width="3.5355339"
     height="3.8890872"
     x="245.89638"
     y="-45.187065"
     inkscape:export-xdpi="517.78381"
     inkscape:export-ydpi="517.78381" />
  <rect
     y="-39.353436"
     x="251.55324"
     height="3.8890872"
     width="3.5355339"
     id="rect3296"
     style="opacity:1;fill:#10181f;fill-opacity:1;stroke:#10181f;stroke-width:2.2750001;stroke-linecap:round;stroke-linejoin:round;stroke-miterlimit:4;stroke-dasharray:none;stroke-opacity:1;paint-order:markers fill stroke"
     inkscape:export-xdpi="517.78381"
     inkscape:export-ydpi="517.78381" />
  <rect
     y="-45.098679"
     x="257.47525"
     height="3.8890872"
     width="3.5355339"
     id="rect3298"
     style="opacity:1;fill:#10181f;fill-opacity:1;stroke:#10181f;stroke-width:2.2750001;stroke-linecap:round;stroke-linejoin:round;stroke-miterlimit:4;stroke-dasharray:none;stroke-opacity:1;paint-order:markers fill stroke"
     inkscape:export-xdpi="517.78381"
     inkscape:export-ydpi="517.78381" />
  <rect
     y="-39.265045"
     x="263.48566"
     height="3.8890872"
     width="3.5355339"
     id="rect3308"
     style="opacity:1;fill:#10181f;fill-opacity:1;stroke:#10181f;stroke-width:2.2750001;stroke-linecap:round;stroke-linejoin:round;stroke-miterlimit:4;stroke-dasharray:none;stroke-opacity:1;paint-order:markers fill stroke"
     inkscape:export-xdpi="517.78381"
     inkscape:export-ydpi="517.78381" />
  <rect
     y="-45.010288"
     x="269.40768"
     height="3.8890872"
     width="3.5355339"
     id="rect3310"
     style="opacity:1;fill:#10181f;fill-opacity:1;stroke:#10181f;stroke-width:2.2750001;stroke-linecap:round;stroke-linejoin:round;stroke-miterlimit:4;stroke-dasharray:none;stroke-opacity:1;paint-order:markers fill stroke"
     inkscape:export-xdpi="517.78381"
     inkscape:export-ydpi="517.78381" />
  <rect
     style="opacity:1;fill:#10181f;fill-opacity:1;stroke:#10181f;stroke-width:2.2750001;stroke-linecap:round;stroke-linejoin:round;stroke-miterlimit:4;stroke-dasharray:none;stroke-opacity:1;paint-order:markers fill stroke"
     id="rect3312"
     width="3.5355339"
     height="3.8890872"
     x="274.97614"
     y="-39.088268"
     inkscape:export-xdpi="517.78381"
     inkscape:export-ydpi="517.78381" />
  <rect
     y="-44.833511"
     x="280.54462"
     height="3.8890872"
     width="3.5355339"
     id="rect3314"
     style="opacity:1;fill:#10181f;fill-opacity:1;stroke:#10181f;stroke-width:2.2750001;stroke-linecap:round;stroke-linejoin:round;stroke-miterlimit:4;stroke-dasharray:none;stroke-opacity:1;paint-order:markers fill stroke"
     inkscape:export-xdpi="517.78381"
     inkscape:export-ydpi="517.78381" />
  <rect
     style="opacity:1;fill:#10181f;fill-opacity:1;stroke:#10181f;stroke-width:2.2750001;stroke-linecap:round;stroke-linejoin:round;stroke-miterlimit:4;stroke-dasharray:none;stroke-opacity:1;paint-order:markers fill stroke"
     id="rect3316"
     width="3.5355339"
     height="3.8890872"
     x="286.20148"
     y="-38.999882"
     inkscape:export-xdpi="517.78381"
     inkscape:export-ydpi="517.78381" />
  <rect
     style="opacity:1;fill:#10181f;fill-opacity:1;stroke:#10181f;stroke-width:2.2750001;stroke-linecap:round;stroke-linejoin:round;stroke-miterlimit:4;stroke-dasharray:none;stroke-opacity:1;paint-order:markers fill stroke"
     id="rect3318"
     width="3.5355339"
     height="3.8890872"
     x="292.12347"
     y="-44.745125"
     inkscape:export-xdpi="517.78381"
     inkscape:export-ydpi="517.78381" />
  <rect
     y="-38.646328"
     x="298.0455"
     height="3.8890872"
     width="3.5355339"
     id="rect3328"
     style="opacity:1;fill:#10181f;fill-opacity:1;stroke:#10181f;stroke-width:2.2750001;stroke-linecap:round;stroke-linejoin:round;stroke-miterlimit:4;stroke-dasharray:none;stroke-opacity:1;paint-order:markers fill stroke"
     inkscape:export-xdpi="517.78381"
     inkscape:export-ydpi="517.78381" />
  <rect
     y="-44.4608"
     x="303.89828"
     height="4.0275455"
     width="3.0110795"
     id="rect3330"
     style="opacity:1;fill:#10181f;fill-opacity:1;stroke:#10181f;stroke-width:2.13654184;stroke-linecap:round;stroke-linejoin:round;stroke-miterlimit:4;stroke-dasharray:none;stroke-opacity:1;paint-order:markers fill stroke"
     inkscape:export-xdpi="517.78381"
     inkscape:export-ydpi="517.78381" />
</svg>
